<svg width="450" height="450" viewBox="0 0 450 450" fill="none" xmlns="http://www.w3.org/2000/svg">
<path d="M351.562 358.594H311.541C340.706 327.206 358.594 285.195 358.594 239.062C358.594 200.812 346.162 163.912 323.395 133.594H379.688C414.577 133.594 442.969 105.202 442.969 70.3125C442.969 35.4234 414.577 7.03125 379.688 7.03125H337.5C302.611 7.03125 274.219 35.4234 274.219 70.3125V88.8961C246.734 72.1055 215.402 63.2812 182.812 63.2812C85.8867 63.2812 7.03125 142.137 7.03125 239.062C7.03125 283.57 23.9695 326.236 53.9719 358.594H49.2188V372.656H182.812C256.479 372.656 316.406 312.729 316.406 239.062C316.406 165.396 256.479 105.469 182.812 105.469C109.146 105.469 49.2188 165.396 49.2188 239.062C49.2188 291.305 79.3687 336.642 123.18 358.594H73.9617C40.3523 327.966 21.0938 284.569 21.0938 239.062C21.0938 149.892 93.6422 77.3438 182.812 77.3438C215.747 77.3438 247.24 87.2156 274.219 105.757V133.594H305.269C330.553 162.928 344.531 200.222 344.531 239.062C344.531 328.233 271.983 400.781 182.812 400.781H63.2812V414.844H182.812H351.562V441.323L442.575 386.719L351.562 332.114V358.594ZM63.2812 239.062C63.2812 173.152 116.902 119.531 182.812 119.531C248.723 119.531 302.344 173.152 302.344 239.062C302.344 304.973 248.723 358.594 182.812 358.594C116.902 358.594 63.2812 304.973 63.2812 239.062ZM288.281 70.3125C288.281 43.1719 310.359 21.0938 337.5 21.0938H379.688C406.828 21.0938 428.906 43.1719 428.906 70.3125C428.906 97.4531 406.828 119.531 379.688 119.531H288.281V70.3125ZM365.625 356.948L415.237 386.719L365.625 416.489V400.781H251.67C268.193 393.722 283.395 384.173 296.866 372.656H365.625V356.948Z" fill="#7300B5"/>
<path d="M21.0938 358.594H35.1562V372.656H21.0938V358.594Z" fill="#7300B5"/>
<path d="M7.03125 400.781H21.0938V414.844H7.03125V400.781Z" fill="#7300B5"/>
<path d="M35.1562 400.781H49.2188V414.844H35.1562V400.781Z" fill="#7300B5"/>
<path d="M288.281 239.062C288.281 180.907 240.968 133.594 182.812 133.594C124.657 133.594 77.3438 180.907 77.3438 239.062C77.3438 297.218 124.657 344.531 182.812 344.531C240.968 344.531 288.281 297.218 288.281 239.062ZM133.095 278.838L113.47 298.463C101.187 284.147 93.2836 266.013 91.7578 246.101H119.531V232.038H91.7648C93.2906 212.119 101.194 193.992 113.477 179.677L133.102 199.301L143.044 189.359L123.42 169.734C137.735 157.451 155.869 149.548 175.781 148.022V175.781H189.844V148.015C209.763 149.541 227.89 157.444 242.205 169.727L222.581 189.352L232.523 199.294L252.148 179.67C264.431 193.985 272.334 212.119 273.86 232.031H246.094V246.094H273.86C272.334 266.013 264.431 284.14 252.148 298.455L232.523 278.831L222.581 288.773L242.205 308.398C227.89 320.681 209.756 328.584 189.844 330.11V302.344H175.781V330.11C155.862 328.584 137.735 320.681 123.42 308.398L143.044 288.773L133.095 278.838Z" fill="#7300B5"/>
<path d="M182.812 260.156C186.061 260.156 189.098 259.362 191.848 258.04L205.966 272.159L215.909 262.216L201.79 248.098C203.112 245.348 203.906 242.311 203.906 239.062C203.906 229.908 198.007 222.173 189.844 219.263V189.844H175.781V219.263C167.618 222.173 161.719 229.908 161.719 239.062C161.719 250.692 171.183 260.156 182.812 260.156ZM182.812 232.031C186.687 232.031 189.844 235.188 189.844 239.062C189.844 242.937 186.687 246.094 182.812 246.094C178.938 246.094 175.781 242.937 175.781 239.062C175.781 235.188 178.938 232.031 182.812 232.031Z" fill="#7300B5"/>
<path d="M323.438 35.1562H393.75V49.2188H323.438V35.1562Z" fill="#7300B5"/>
<path d="M323.438 63.2812H393.75V77.3438H323.438V63.2812Z" fill="#7300B5"/>
<path d="M379.688 91.4062H393.75V105.469H379.688V91.4062Z" fill="#7300B5"/>
<path d="M351.562 91.4062H365.625V105.469H351.562V91.4062Z" fill="#7300B5"/>
<path d="M323.438 91.4062H337.5V105.469H323.438V91.4062Z" fill="#7300B5"/>
</svg>
