<?xml version="1.0" encoding="iso-8859-1"?>
<!-- Generator: Adobe Illustrator 16.0.0, SVG Export Plug-In . SVG Version: 6.00 Build 0)  -->
<!DOCTYPE svg PUBLIC "-//W3C//DTD SVG 1.1//EN" "http://www.w3.org/Graphics/SVG/1.1/DTD/svg11.dtd">
<svg version="1.1" id="Capa_1" xmlns="http://www.w3.org/2000/svg" xmlns:xlink="http://www.w3.org/1999/xlink" x="0px" y="0px"
	 width="380.122px" height="380.122px" viewBox="0 0 380.122 380.122" style="enable-background:new 0 0 380.122 380.122;"
	 xml:space="preserve" fill="#7300B5">
<g>
	<path d="M379.632,148.271c-0.612-7.344-10.403-9.18-13.464-3.672c-9.792-6.12-22.644-10.404-31.824-15.3
		c-15.3-7.956-31.823-16.524-48.96-21.42c-3.672-5.508-14.076-3.672-13.464,4.284c1.836,91.8-115.668,89.964-181.152,78.948
		c0-7.344,0.612-14.688,0.612-21.42c0-3.06,0-6.12,0-9.18c0-1.836-3.06-7.344-3.06-4.896c0-0.612-0.612-1.224-0.612-1.836
		c-6.732-18.972-79.56,29.376-86.904,41.616c-1.224,2.448-1.224,6.12,1.224,8.568c1.224,0.612,2.448,1.836,3.06,3.061l0,0
		c-0.612,1.224-0.612,2.447-0.612,3.06c0.612,7.956,9.792,15.3,14.688,20.196c14.688,15.3,30.6,31.212,47.736,44.063
		c2.448,1.836,7.344,1.225,9.18-1.224c0.612-0.612,0.612-1.225,1.224-1.225c0.612-0.611,0.612-1.836,0.612-3.06
		c0.612-0.612,1.224-1.836,1.836-3.06c0.612-7.345,0.612-16.524,3.06-23.257c0-0.611,0.612-1.224,0.612-1.836
		C171.552,282.911,391.872,282.911,379.632,148.271z M81.588,226.606c-0.612,0-1.836,0-2.448,0c-9.792,0-8.568,18.973-7.344,29.988
		c-9.792-7.956-18.972-17.136-28.152-25.704c-6.732-6.12-12.852-12.239-18.972-18.972c-1.836-2.448-4.284-4.284-6.12-6.732
		c-1.224-1.224-2.448-2.447-3.672-3.06c-1.224-0.612-1.836-0.612-1.836-0.612l-0.612-0.611c4.896-3.672,12.24-9.793,13.464-10.404
		c9.18-6.121,18.36-11.017,28.152-15.913c3.672-1.836,15.912-5.508,25.092-10.404c0,0.612,0,1.224,0,1.836
		c-1.224,7.956-2.448,15.912-2.448,24.48c0,5.508,4.284,7.344,7.956,7.344l0,0c68.544,29.376,198.288,13.464,202.572-77.724
		c13.464,6.732,26.316,13.464,39.78,20.808c9.792,5.508,26.316,17.748,39.168,18.972
		C358.824,279.239,156.252,249.251,81.588,226.606z"/>
</g>
<g>
</g>
<g>
</g>
<g>
</g>
<g>
</g>
<g>
</g>
<g>
</g>
<g>
</g>
<g>
</g>
<g>
</g>
<g>
</g>
<g>
</g>
<g>
</g>
<g>
</g>
<g>
</g>
<g>
</g>
</svg>
