<svg width="422" height="422" viewBox="0 0 422 422" fill="none" xmlns="http://www.w3.org/2000/svg">
<path d="M421.19 185.498C421.19 167.853 413.227 151.317 399.658 140.31C400.248 137.493 400.541 134.786 400.541 132.122C400.541 110.142 384.288 91.8881 363.173 88.7441C363.658 86.2193 363.888 83.7425 363.888 81.2753C363.888 57.8753 345.446 38.7568 322.344 37.5424C321.965 37.48 321.581 37.4272 321.182 37.4272C320.99 37.4272 320.803 37.4512 320.606 37.456C320.414 37.4512 320.227 37.4272 320.03 37.4272C317.832 37.4272 315.619 37.624 313.282 38.032C309.221 16.504 290.467 0.472046 267.984 0.472046C242.491 0.472046 221.75 21.2129 221.75 46.7105V363.117C221.75 395.387 248.002 421.634 280.267 421.634C301.675 421.634 321.106 410.051 331.368 391.653C333.667 392.152 335.875 392.459 338.093 392.603C352.027 393.491 365.597 388.926 376.138 379.677C386.678 370.427 392.986 357.626 393.898 343.629C394.277 337.797 393.624 331.946 391.963 326.166C410.184 313.25 420.893 292.797 420.893 270.386C420.893 254.138 415.042 238.538 404.357 226.11C415.109 215.224 421.19 200.661 421.19 185.498ZM406.502 270.395C406.502 287.118 398.909 302.459 385.886 312.726C376.248 297.386 359.15 287.589 340.637 287.589C336.662 287.589 333.437 290.814 333.437 294.789C333.437 298.763 336.662 301.989 340.637 301.989C356.674 301.989 371.28 312.035 377.03 326.987C378.998 332.21 379.872 337.494 379.531 342.702C378.869 352.859 374.294 362.147 366.643 368.858C358.992 375.573 349.166 378.909 339.034 378.237C336.182 378.05 333.235 377.435 329.755 376.307C326.203 375.146 322.358 376.902 320.894 380.339C313.958 396.678 298.008 407.238 280.262 407.238C255.936 407.238 236.146 387.448 236.146 363.122V46.7153C236.146 29.1617 250.426 14.8768 267.979 14.8768C284.29 14.8768 297.71 27.1744 299.458 43.2352C286.253 50.8 277.32 65.0033 277.32 81.2801C277.32 85.2593 280.546 88.4801 284.52 88.4801C288.494 88.4801 291.72 85.2593 291.72 81.2801C291.72 65.2337 304.627 52.168 320.597 51.856C336.566 52.168 349.474 65.2337 349.474 81.2753C349.474 84.2609 348.912 87.3521 347.75 90.7361C347.477 91.5329 347.347 92.368 347.362 93.208C347.366 93.4048 347.376 93.5873 347.395 93.7601C347.366 93.8609 347.347 93.9281 347.347 93.9281C346.781 96.1601 347.318 98.5313 348.792 100.302C350.266 102.074 352.464 103.034 354.797 102.885C355.296 102.851 355.795 102.789 356.678 102.664C372.917 102.664 386.131 115.878 386.131 132.117C386.131 134.862 385.637 137.68 384.586 140.992C383.611 144.04 384.768 147.366 387.422 149.152C399.106 157.019 406.186 169.931 406.69 183.914C406.69 183.933 406.685 183.952 406.685 183.971C406.685 208.115 387.043 227.762 362.899 227.762C338.755 227.762 319.109 208.115 319.109 183.971C319.109 179.992 315.883 176.771 311.909 176.771C307.934 176.771 304.709 179.992 304.709 183.971C304.709 216.059 330.811 242.162 362.899 242.162C373.594 242.162 383.587 239.21 392.208 234.155C401.424 244.187 406.502 257.018 406.502 270.395Z" fill="#7300B5"/>
<path d="M153.259 0.476746C130.776 0.476746 112.027 16.5087 107.971 38.0367C105.629 37.6287 103.416 37.4319 101.218 37.4319C101.026 37.4319 100.838 37.4559 100.642 37.4607C100.45 37.4559 100.262 37.4319 100.066 37.4319C99.6672 37.4319 99.2832 37.4847 98.904 37.5471C75.8016 38.7615 57.3648 57.8799 57.3648 81.2799C57.3648 83.7471 57.6 86.2239 58.08 88.7487C36.9648 91.8927 20.712 110.147 20.712 132.126C20.712 134.786 21.0048 137.493 21.5952 140.315C8.02558 151.322 0.0623779 167.858 0.0623779 185.502C0.0623779 200.666 6.13918 215.229 16.8864 226.125C6.19678 238.552 0.345578 254.152 0.345578 270.4C0.345578 292.811 11.0544 313.259 29.2752 326.181C27.6096 331.96 26.9616 337.811 27.3456 343.648C28.2576 357.64 34.56 370.442 45.1008 379.691C55.6416 388.946 69.1728 393.51 83.1456 392.618C85.3296 392.474 87.5568 392.157 89.8656 391.662C100.128 410.066 119.558 421.648 140.966 421.648C173.232 421.648 199.483 395.397 199.483 363.131V46.7151C199.493 21.2175 178.752 0.476746 153.259 0.476746ZM185.093 363.122C185.093 387.448 165.302 407.238 140.976 407.238C123.23 407.238 107.28 396.678 100.349 380.339C99.192 377.618 96.5424 375.952 93.72 375.952C92.9808 375.952 92.2272 376.062 91.488 376.307C88.0128 377.435 85.0656 378.05 82.2096 378.237C72.0384 378.904 62.2512 375.568 54.6048 368.858C46.9536 362.147 42.3792 352.859 41.7168 342.702C41.352 337.134 42.3168 331.49 44.5872 325.926C44.6208 325.845 44.6112 325.754 44.64 325.672C51.0816 311.003 64.92 301.898 81.1056 301.898C85.0848 301.898 88.3056 298.672 88.3056 294.698C88.3056 290.723 85.0848 287.498 81.1056 287.498C62.2032 287.498 45.1008 297.131 35.2752 312.645C22.3104 302.378 14.7456 287.075 14.7456 270.395C14.7456 257.018 19.8336 244.187 29.04 234.16C37.6608 239.214 47.6592 242.166 58.3536 242.166C90.4416 242.166 116.544 216.064 116.544 183.976C116.544 179.997 113.323 176.776 109.344 176.776C105.365 176.776 102.144 179.997 102.144 183.976C102.144 208.12 82.5024 227.766 58.3536 227.766C34.2048 227.766 14.5632 208.12 14.5632 183.976C14.5632 183.966 14.5584 183.957 14.5584 183.947C15.0528 169.955 22.1328 157.034 33.8208 149.157C36.4752 147.371 37.6272 144.05 36.6576 141.002C35.6016 137.685 35.112 134.867 35.112 132.122C35.112 115.917 48.2688 102.722 64.848 102.722C64.8816 102.722 64.92 102.722 64.9536 102.722C65.448 102.789 65.9424 102.851 66.4464 102.885C68.7744 103.029 70.9968 102.064 72.4656 100.283C73.9392 98.4975 74.4672 96.1167 73.8768 93.8799C73.8768 93.8751 73.8624 93.8127 73.8384 93.7311C73.8528 93.5631 73.8672 93.4095 73.872 93.2751C73.896 92.4111 73.7664 91.5519 73.4832 90.7359C72.3216 87.3423 71.76 84.2463 71.76 81.2703C71.76 65.2287 84.6624 52.1583 100.637 51.8511C116.611 52.1631 129.514 65.2287 129.514 81.2751C129.514 85.2543 132.734 88.4751 136.714 88.4751C140.693 88.4751 143.914 85.2543 143.914 81.2751C143.914 64.9983 134.981 50.7951 121.776 43.2303C123.523 27.1695 136.944 14.8719 153.254 14.8719C170.808 14.8719 185.088 29.1567 185.088 46.7103V363.122H185.093Z" fill="#7300B5"/>
</svg>
