<svg width="450" height="450" viewBox="0 0 450 450" fill="none" xmlns="http://www.w3.org/2000/svg">
<g clip-path="url(#clip0)">
<path d="M401.756 114.375H109.626V58.3168C109.626 49.181 102.193 41.748 93.0611 41.748H83.6403C79.9633 41.748 76.9867 44.7247 76.9867 48.4016C76.9867 52.0786 79.9633 55.0552 83.6403 55.0552H93.0611C94.8567 55.0552 96.3192 56.5178 96.3192 58.3168V114.381C96.3089 114.381 96.302 114.381 96.2917 114.381C96.2883 114.381 96.2849 114.381 96.2814 114.381C96.278 114.381 96.2711 114.381 96.2677 114.381C96.2231 114.381 96.1853 114.381 96.1544 114.381H96.1819C96.151 114.381 96.1098 114.381 96.0651 114.381C96.0617 114.381 96.0617 114.381 96.0583 114.381C94.5305 114.385 85.4771 114.388 41.8682 114.412C26.3741 114.412 13.6711 102.389 12.5278 87.228C11.1408 69.0113 25.2686 55.0552 41.8682 55.0552H57.0225C60.6995 55.0552 63.6761 52.0786 63.6761 48.4016C63.6761 44.7281 60.6995 41.748 57.0225 41.748H41.8682C20.1599 41.748 -0.878906 58.1486 -0.878906 87.1697V360.242C-0.878906 386.358 20.3693 407.61 46.4859 407.61H401.756C427.873 407.61 449.121 386.358 449.121 360.242V161.739C449.121 135.623 427.873 114.375 401.756 114.375ZM435.814 360.242C435.814 379.021 420.536 394.299 401.756 394.299H46.4859C27.7061 394.299 12.4283 379.021 12.4283 360.242V115.95C28.791 131.496 47.4197 126.906 53.579 127.72C114.934 127.713 340.483 127.682 401.753 127.682C420.533 127.682 435.814 142.96 435.814 161.739V360.242Z" fill="#7300B5"/>
<path d="M320.825 152.751H285.84C282.167 152.751 279.187 155.728 279.187 159.405C279.187 163.078 282.167 166.058 285.84 166.058H320.825C324.993 166.058 328.385 169.45 328.385 173.618V223.462C328.385 227.633 324.993 231.025 320.825 231.025H250.327C246.159 231.025 242.767 227.633 242.767 223.462V173.618C242.767 169.45 246.159 166.058 250.327 166.058H259.226C262.9 166.058 265.88 163.078 265.88 159.405C265.88 155.728 262.9 152.751 259.226 152.751H250.327C238.819 152.751 229.46 162.11 229.46 173.618V223.462C229.46 234.97 238.819 244.333 250.327 244.333H320.825C332.33 244.333 341.692 234.97 341.692 223.462V173.618C341.692 162.11 332.33 152.751 320.825 152.751Z" fill="#7300B5"/>
<path d="M117.008 152.751H63.7894C47.5159 152.751 34.2808 165.986 34.2808 182.256V338.866C34.2808 355.137 47.5159 368.372 63.7894 368.372H117.008C133.278 368.372 146.513 355.137 146.513 338.866V326.102C146.513 322.428 143.536 319.448 139.859 319.448C136.186 319.448 133.206 322.428 133.206 326.102V338.866C133.206 347.8 125.941 355.064 117.008 355.064H63.7894C54.8561 355.064 47.588 347.8 47.588 338.866V182.256C47.588 173.327 54.8561 166.058 63.7894 166.058H117.008C125.938 166.058 133.206 173.323 133.206 182.256V299.487C133.206 303.164 136.186 306.141 139.859 306.141C143.536 306.141 146.513 303.164 146.513 299.487V182.256C146.513 165.986 133.278 152.751 117.008 152.751Z" fill="#7300B5"/>
<path d="M320.825 276.79H250.327C238.819 276.79 229.46 286.153 229.46 297.657V347.504C229.46 359.013 238.819 368.372 250.327 368.372H320.825C332.33 368.372 341.692 359.013 341.692 347.504V297.657C341.692 286.153 332.33 276.79 320.825 276.79ZM328.385 347.504C328.385 351.672 324.993 355.064 320.825 355.064H250.327C246.159 355.064 242.767 351.672 242.767 347.504V297.657C242.767 293.489 246.159 290.097 250.327 290.097H320.825C324.993 290.097 328.385 293.489 328.385 297.657V347.504Z" fill="#7300B5"/>
<path d="M402.316 191.886H353.42C349.743 191.886 346.763 194.867 346.763 198.54C346.763 202.217 349.743 205.194 353.42 205.194L402.36 205.238L402.316 315.929H369.93L380.656 305.609C383.303 303.061 383.381 298.849 380.834 296.198C378.287 293.551 374.077 293.472 371.427 296.02C348.462 318.432 346.763 318.157 346.763 322.583C346.763 324.443 347.532 326.143 348.805 327.375C371.482 348.328 371.314 351.006 376.041 351.006C381.977 351.006 384.985 343.724 380.656 339.556L369.927 329.236H402.316C409.677 329.236 415.668 323.249 415.668 315.884V205.238C415.668 197.877 409.68 191.886 402.316 191.886V191.886Z" fill="#7300B5"/>
<path d="M162.021 205.194H198.375L187.65 215.514C183.321 219.682 186.325 226.964 192.264 226.964C196.988 226.964 196.823 224.282 219.5 203.336C221.711 201.191 222.137 197.919 220.719 195.34C220.032 194.08 221.354 195.533 196.875 171.977C194.228 169.43 190.015 169.512 187.468 172.159C184.92 174.806 184.999 179.019 187.65 181.566L198.375 191.887H162.021C158.344 191.887 155.367 194.867 155.367 198.54C155.367 202.217 158.344 205.194 162.021 205.194Z" fill="#7300B5"/>
<path d="M214.886 319.4H178.531L189.257 309.08C191.904 306.532 191.986 302.32 189.439 299.673C186.891 297.026 182.679 296.943 180.032 299.491C155.821 322.792 156.933 321.505 156.188 322.854C154.767 325.439 155.199 328.708 157.407 330.85C180.124 351.837 179.925 354.477 184.643 354.477C190.579 354.477 193.586 347.196 189.257 343.031L178.531 332.707H214.886C218.559 332.707 221.539 329.731 221.539 326.054C221.539 322.38 218.559 319.4 214.886 319.4Z" fill="#7300B5"/>
</g>
<defs>
<clipPath id="clip0">
<rect width="450" height="449.121" fill="white"/>
</clipPath>
</defs>
</svg>
