<svg width="450" height="450" viewBox="0 0 450 450" fill="none" xmlns="http://www.w3.org/2000/svg">
<path d="M295.312 28.125H264.769C258.975 11.7562 243.338 0 225 0C206.662 0 191.025 11.7562 185.203 28.125H154.688C146.925 28.125 140.625 34.425 140.625 42.1875V98.4375C140.625 106.2 146.925 112.5 154.688 112.5H295.312C303.075 112.5 309.375 106.2 309.375 98.4375V42.1875C309.375 34.425 303.075 28.125 295.312 28.125Z" fill="#7300B5"/>
<path d="M365.625 56.25H337.5V98.4375C337.5 121.697 318.572 140.625 295.312 140.625H154.688C131.428 140.625 112.5 121.697 112.5 98.4375V56.25H84.375C68.8781 56.25 56.25 68.8781 56.25 84.375V421.875C56.25 437.653 68.5969 450 84.375 450H365.625C381.403 450 393.75 437.653 393.75 421.875V84.375C393.75 68.5969 381.403 56.25 365.625 56.25ZM220.894 305.269L164.644 361.519C161.888 364.247 158.288 365.625 154.688 365.625C151.087 365.625 147.487 364.247 144.731 361.519L116.606 333.394C111.122 327.909 111.122 318.994 116.606 313.509C122.091 308.025 131.006 308.025 136.491 313.509L154.688 331.678L200.981 285.384C206.466 279.9 215.381 279.9 220.866 285.384C226.35 290.869 226.378 299.756 220.894 305.269ZM220.894 192.769L164.644 249.019C161.888 251.747 158.288 253.125 154.688 253.125C151.087 253.125 147.487 251.747 144.731 249.019L116.606 220.894C111.122 215.409 111.122 206.494 116.606 201.009C122.091 195.525 131.006 195.525 136.491 201.009L154.688 219.178L200.981 172.884C206.466 167.4 215.381 167.4 220.866 172.884C226.35 178.369 226.378 187.256 220.894 192.769ZM323.438 337.5H267.188C259.425 337.5 253.125 331.2 253.125 323.438C253.125 315.675 259.425 309.375 267.188 309.375H323.438C331.2 309.375 337.5 315.675 337.5 323.438C337.5 331.2 331.2 337.5 323.438 337.5ZM323.438 225H267.188C259.425 225 253.125 218.7 253.125 210.938C253.125 203.175 259.425 196.875 267.188 196.875H323.438C331.2 196.875 337.5 203.175 337.5 210.938C337.5 218.7 331.2 225 323.438 225Z" fill="#7300B5"/>
</svg>
