<svg width="420" height="420" viewBox="0 0 420 420" fill="none" xmlns="http://www.w3.org/2000/svg">
<g clip-path="url(#clip0)">
<path d="M209.998 101.109C149.954 101.109 101.109 149.954 101.109 209.998C101.109 270.043 149.954 318.887 209.998 318.887C270.043 318.887 318.887 270.043 318.887 209.998C318.887 149.954 270.043 101.109 209.998 101.109ZM209.998 303.332C158.533 303.332 116.665 261.464 116.665 209.998C116.665 158.533 158.533 116.665 209.998 116.665C261.464 116.665 303.332 158.533 303.332 209.998C303.332 261.464 261.464 303.332 209.998 303.332Z" fill="#794FB5"/>
<path d="M398.378 163.333H382.682C378.677 148.462 372.789 134.229 365.104 120.89L376.196 109.799C380.279 105.716 382.527 100.279 382.527 94.5078C382.527 88.7289 380.279 83.3 376.196 79.2089L340.783 43.7967C332.617 35.6378 318.376 35.6222 310.193 43.7967L299.102 54.8878C285.756 47.2111 271.53 41.3233 256.667 37.3178V21.6222C256.667 9.69889 246.968 0 235.044 0H184.956C173.032 0 163.333 9.69889 163.333 21.6222V37.3178C148.47 41.3233 134.244 47.2111 120.89 54.8956L109.799 43.8044C101.624 35.6222 87.3755 35.6378 79.2089 43.8044L43.7967 79.2167C39.7133 83.3 37.4656 88.7367 37.4656 94.5156C37.4656 100.287 39.7133 105.716 43.7967 109.807L54.8878 120.898C47.2111 134.229 41.3156 148.462 37.3178 163.333H21.6222C9.69889 163.333 0 173.032 0 184.956V235.037C0 246.968 9.69889 256.667 21.6222 256.667H37.3178C41.3233 271.53 47.2111 285.756 54.8956 299.11L43.8044 310.201C39.7211 314.284 37.4733 319.721 37.4733 325.492C37.4733 331.271 39.7211 336.7 43.8044 340.791L79.2167 376.203C87.3833 384.378 101.632 384.386 109.807 376.203L120.898 365.112C134.252 372.789 148.478 378.684 163.341 382.69V398.386C163.341 410.309 173.04 420.008 184.963 420.008H235.044C246.968 420.008 256.667 410.309 256.667 398.386V382.69C271.53 378.684 285.756 372.797 299.11 365.112L310.201 376.203C318.383 384.386 332.617 384.37 340.791 376.203L376.203 340.791C380.287 336.708 382.534 331.271 382.534 325.492C382.534 319.721 380.287 314.292 376.203 310.201L365.112 299.11C372.789 285.756 378.684 271.53 382.69 256.667H398.386C410.309 256.667 420.008 246.968 420.008 235.044V184.956C420 173.032 410.301 163.333 398.378 163.333ZM404.444 235.044C404.444 238.389 401.722 241.111 398.378 241.111H370.44L369.04 247.123C364.988 264.522 358.159 281.034 348.717 296.209L345.45 301.451L365.198 321.199C367.57 323.571 367.57 327.421 365.198 329.786L329.786 365.198C327.421 367.562 323.571 367.578 321.199 365.198L301.451 345.45L296.209 348.717C281.042 358.159 264.53 364.996 247.123 369.04L241.111 370.44V398.378C241.111 401.722 238.389 404.444 235.044 404.444H184.956C181.611 404.444 178.889 401.722 178.889 398.378V370.44L172.877 369.04C155.478 364.988 138.966 358.159 123.791 348.717L118.549 345.45L98.8011 365.198C96.4211 367.578 92.5711 367.562 90.2144 365.198L54.8022 329.786C52.43 327.413 52.43 323.563 54.8022 321.199L74.55 301.451L71.2833 296.209C61.8411 281.042 55.0044 264.53 50.96 247.123L49.56 241.111H21.6222C18.2778 241.111 15.5556 238.389 15.5556 235.044V184.956C15.5556 181.611 18.2778 178.889 21.6222 178.889H49.56L50.96 172.877C55.0122 155.47 61.8411 138.958 71.2833 123.791L74.55 118.549L54.8022 98.8011C52.43 96.4289 52.43 92.5789 54.8022 90.2144L90.2144 54.8022C92.5789 52.4378 96.4289 52.4222 98.8011 54.8022L118.549 74.55L123.791 71.2833C138.958 61.8411 155.47 55.0044 172.877 50.96L178.889 49.56V21.6222C178.889 18.2778 181.611 15.5556 184.956 15.5556H235.037C238.389 15.5556 241.111 18.2778 241.111 21.6222V49.56L247.123 50.96C264.522 55.0122 281.034 61.8411 296.209 71.2833L301.451 74.55L321.199 54.8022C323.579 52.4222 327.429 52.4378 329.786 54.8022L365.198 90.2144C367.57 92.5867 367.57 96.4367 365.198 98.8011L345.45 118.549L348.717 123.791C358.159 138.95 364.996 155.462 369.04 172.877L370.44 178.889H398.378C401.722 178.889 404.444 181.611 404.444 184.956V235.044Z" fill="#794FB5"/>
<path d="M210 132.223C167.114 132.223 132.223 167.114 132.223 210C132.223 252.887 167.114 287.778 210 287.778C252.887 287.778 287.778 252.887 287.778 210C287.778 167.114 252.887 132.223 210 132.223ZM210 272.223C175.693 272.223 147.778 244.308 147.778 210C147.778 175.693 175.693 147.778 210 147.778C244.308 147.778 272.223 175.693 272.223 210C272.223 244.308 244.308 272.223 210 272.223Z" fill="#794FB5"/>
</g>
<defs>
<clipPath id="clip0">
<rect width="420" height="420" fill="white"/>
</clipPath>
</defs>
</svg>
