<svg width="420" height="421" viewBox="0 0 420 421" fill="none" xmlns="http://www.w3.org/2000/svg">
<path d="M51.9277 327.03C90.3119 351.941 170.501 351.045 204.46 319.366C211.762 312.562 206.406 284.113 206.406 275.616C206.406 249.276 206.406 222.935 206.406 196.595C206.406 174.028 132.343 185.592 117.494 185.592C116.788 185.592 116.037 185.7 115.268 185.899C114.064 186.207 111.658 186.84 109.938 187.483C108.771 187.917 107.776 188.478 107.097 189.166C97.6413 198.613 98.3833 223.532 101.686 235.857C102.591 239.232 107.296 242.444 110.825 242.444C141.156 242.444 146.486 283.679 116.879 282.737C60.6687 280.946 67.2561 186.107 85.2175 153.342C104.916 117.401 140.468 143.118 168.365 142.964C173.36 142.937 177.531 141.905 177.776 141.996C177.93 142.05 178.074 142.095 178.219 142.14C178.554 142.24 178.88 142.267 179.187 142.24C179.73 142.195 179.712 141.896 179.151 141.787C178.59 141.679 178.816 141.407 179.649 141.172C180.146 141.027 180.635 140.883 181.124 140.665C189.937 136.865 200.75 97.1145 195.629 91.0609C183.938 77.2709 154.367 77.5695 138.342 76.1669C86.2219 71.5883 37.7486 89.0702 14.9732 138.43C-11.6025 196.043 -4.87036 290.184 51.9277 327.03ZM21.3163 186.623C21.6963 181.637 25.0986 174.824 28.709 171.367C29.2972 170.806 29.8944 170.236 30.4825 169.675C34.0929 166.228 37.5314 161.441 38.21 158.998C38.8796 156.546 36.6899 157.487 33.17 161.043C31.8489 162.382 30.5187 163.721 29.1976 165.06C25.6777 168.617 22.8727 171.123 22.9179 170.68C22.9541 170.408 22.9812 170.128 23.0174 169.856C24.2299 160.998 26.3021 152.537 29.2157 144.583C30.935 139.887 35.5136 133.345 39.0244 129.771C48.6974 119.917 58.3522 110.126 67.9528 100.399C71.4727 96.843 77.9968 92.2554 82.7473 90.6809C86.6653 89.387 90.7734 88.3373 95.0805 87.5682C98.4014 86.98 101.767 86.5457 105.179 86.2471C110.155 85.8127 112.644 85.8308 110.717 85.9575C108.789 86.0842 105.432 88.0568 103.206 90.2918C100.98 92.5359 101.478 93.6669 104.337 92.9792C107.197 92.2825 110.916 90.4728 112.581 88.7807C114.255 87.0977 119.666 85.6499 124.66 85.858C127.737 85.9847 130.804 86.1928 133.872 86.4642C138.858 86.9257 142.45 87.8939 141.952 88.3735C141.455 88.8712 144.585 89.2874 148.92 89.4322C153.254 89.6041 158.294 90.1108 160.194 90.4909C161.343 90.7261 162.484 90.9705 163.615 91.2238C182.074 95.35 178.418 100.263 174.382 117.275C169.894 136.204 178.264 131.173 159.552 127.373C147.698 124.957 134.541 124.477 122.498 125.581C108.255 126.893 91.6511 129.771 80.5937 139.833C48.7969 168.761 40.2188 254.216 78.6845 281.887C97.0984 295.134 127.076 299.776 143.364 285.832C147.164 282.593 152.186 276.223 155.824 272.802C156.502 272.16 157.181 271.508 157.869 270.866C161.497 267.436 164.447 264.541 164.447 264.369C164.447 264.206 161.561 266.911 157.977 270.404C157.281 271.092 156.584 271.771 155.878 272.467C152.304 275.96 151.01 276.295 152.268 272.902C152.992 270.956 153.571 268.866 153.996 266.604C155.824 256.759 154.213 238.363 142.839 234.771C140.405 234.011 137.636 233.739 134.858 233.54C130.406 233.26 127.456 232.246 128.217 231.531C128.995 230.817 129.61 229.496 129.61 228.591C129.61 227.686 128.425 228.138 126.959 229.604C125.502 231.07 121.882 231.712 120.38 229.45C119.602 228.274 119.168 226.763 119.168 224.745C119.168 222.619 118.878 219.569 118.589 216.158C118.182 211.425 120.561 204.974 123.665 201.762C126.769 198.567 133.338 195.979 138.333 195.979C142.73 195.979 147.137 195.979 151.535 195.979C156.539 195.979 159.887 196.676 159.027 197.536C158.158 198.395 158.674 199.101 160.176 199.101C161.678 199.101 163.651 198.395 164.574 197.536C165.497 196.676 166.474 195.97 166.764 195.97C166.935 195.97 167.098 195.97 167.279 195.97C170.664 195.97 173.505 195.88 175.912 195.789C180.68 195.636 183.793 196.731 182.888 197.563C181.983 198.405 182.743 199.092 184.589 199.092C186.435 199.092 188.697 202.133 188.806 205.969C188.86 207.906 188.869 210.213 188.869 212.928C188.869 237.16 188.869 261.383 188.869 285.624C188.869 295.098 188.869 304.581 188.869 314.064C188.869 331.636 135.492 332.514 122.045 332.306C85.2628 331.736 60.4063 317.557 44.4717 295.912C41.5128 291.904 39.8117 288.049 40.2731 287.642C40.7256 287.217 40.1555 284.574 39.1692 281.697C38.1829 278.819 37.0428 276.901 36.4999 277.435C36.1741 277.77 35.8484 278.096 35.5226 278.403C35.3597 278.584 35.1969 278.756 35.034 278.928C34.7716 279.218 32.8171 275.861 31.0707 271.255C29.3424 266.658 29.2972 261.727 30.6635 260.378C32.0298 259.021 33.0885 257.637 33.0342 257.293C32.98 256.949 32.1113 257.465 31.0978 258.406C30.0844 259.356 28.9262 260.442 28.528 260.84C28.1389 261.238 27.1798 259.483 26.4559 256.886C25.7411 254.298 26.655 250.778 28.3923 249.068C30.1296 247.348 31.2788 243.458 31.0435 240.354C30.8083 237.259 29.0076 236.454 26.9626 238.571C24.9086 240.68 22.7007 239.205 22.1759 235.278C21.6511 231.35 23.3794 226.066 25.8497 223.514C28.3199 220.963 30.3378 214.846 30.5368 209.86C30.5911 208.648 30.6454 207.453 30.6997 206.277C30.9621 201.291 28.9081 199.644 25.913 202.594C22.927 205.553 20.4657 203.906 20.6286 198.902C20.7734 194.803 20.9996 190.713 21.3163 186.623Z" fill="#794FB5"/>
<path d="M287.413 122.451C284.988 77.1084 214.255 83.5781 211.993 125.889C210.943 145.48 224.036 155.768 239.6 157.831C244.55 158.473 249.68 158.329 251.019 158.464C251.806 158.564 252.612 158.618 253.444 158.618C253.652 158.618 253.888 158.591 254.087 158.564C254.449 158.501 254.422 158.301 254.06 158.021C253.689 157.75 257.426 156.98 262.14 155.288C275.523 150.474 286.553 139.752 287.422 123.682C287.431 123.555 287.395 123.464 287.349 123.374C287.268 123.211 287.277 122.94 287.349 122.777C287.386 122.659 287.413 122.559 287.413 122.451ZM230.126 127.989C229.936 127.201 229.764 126.414 229.637 125.627C229.33 123.727 229.321 121.79 229.547 119.863C229.945 116.678 233.564 111.556 236.822 108.236C240.061 104.915 240.957 102.906 238.994 104.118C237.039 105.331 238.08 103.467 242.378 101.784C244.857 100.816 247.617 100.463 250.567 100.942C251.779 101.132 252.91 101.467 253.987 101.883C255.815 102.598 254.34 106.344 250.829 109.91C246.251 114.57 241.663 119.212 237.084 123.872C233.61 127.437 230.461 129.301 230.126 127.989ZM268.103 135.354C265.253 143.652 259.027 150.312 248.875 148.638C247.735 148.448 246.658 148.149 245.626 147.76C243.889 147.099 242.676 146.222 242.794 146.122C242.912 146.013 242.324 144.602 241.69 142.874C241.075 141.145 240.079 140.331 239.256 141.136C238.442 141.933 235.709 140.512 233.908 137.426C232.108 134.35 233.727 129.283 236.84 126.423C239.953 123.582 244.034 117.42 247.364 113.701C248.649 112.262 250.078 110.95 251.626 109.792C255.616 106.797 262.981 108.036 265.542 112.326C266.538 114.018 267.379 115.827 268.031 117.7C269.696 122.406 269.723 130.622 268.103 135.354Z" fill="#794FB5"/>
<path d="M410.683 289.614C397.563 287.94 379.574 285.09 379.574 268.866C379.574 260.749 376.362 215.135 388.478 215.135C396.097 215.135 406.521 216.755 412.583 210.647C421.098 202.042 417.017 187.166 417.017 175.737C417.017 164.2 410.792 162.544 402.431 162.563C397.427 162.572 389.292 161.857 385.311 158.826C371.087 147.94 388.605 128.087 376.145 116.912C370.037 111.447 347.316 115.845 340.158 115.845C311.149 115.845 310.56 121.391 310.56 149.958C310.56 164.707 301.385 166.698 292.843 171.304C288.455 173.692 285.451 173.394 284.175 169.693C283.252 166.996 281.913 165.042 279.985 164.228C267.969 159.151 243.782 162.572 230.752 163.73C219.387 164.734 214.319 169.385 214.319 180.108C214.319 205.553 214.319 231.024 214.319 256.478C214.319 278.72 207.786 312.932 216.202 333.798C220.147 343.58 267.19 336.649 277.343 333.047C291.993 327.862 284.193 289.198 284.193 277.064C284.193 256.044 284.193 235.024 284.193 213.995C284.193 213.524 284.211 212.981 284.247 212.348C284.301 211.443 287.251 213.651 291.631 216.04C301.801 221.605 310.578 220.808 310.578 241.702C310.578 269.942 306.425 299.197 323.21 323.456C339.615 347.181 386.994 344.557 409.986 335.527C422.564 330.604 423.831 291.306 410.683 289.614ZM252.242 329.211C250.405 329.211 248.722 329.129 247.202 328.994C244.433 328.722 242.252 327.799 242.252 327.356C242.252 326.912 241.972 326.849 241.637 327.193C241.293 327.537 238.814 327.283 236.615 325.7C234.425 324.125 235.366 320.09 237.819 317.61C240.271 315.149 242.252 312.896 242.252 312.616C242.252 312.326 240.207 314.235 237.692 316.887C235.186 319.529 231.503 318 231.286 313.149C231.059 308.299 233.837 301.748 236.832 298.554C239.827 295.351 242.252 288.709 242.252 283.696C242.252 282.33 242.252 280.927 242.252 279.534C242.252 274.539 239.909 272.856 237.022 275.761C234.145 278.683 231.792 277.009 231.792 271.996C231.792 265.011 231.792 257.998 231.792 251.004C231.792 246 234.145 239.548 237.022 236.598C239.909 233.648 242.252 229.875 242.252 228.165C242.252 226.464 239.909 227.224 237.022 229.857C234.145 232.49 231.792 230.581 231.792 225.568C231.792 221.587 231.792 217.587 231.792 213.606C231.792 208.602 234.145 202.331 237.022 199.589C239.909 196.848 242.252 194.169 242.252 193.59C242.252 193.02 239.9 194.857 237.013 197.671C234.127 200.494 231.792 198.739 231.792 193.735C231.792 187.618 231.792 181.492 231.792 175.384C231.792 174.443 231.81 173.665 231.828 173.005C231.865 171.684 235.158 170.643 239.266 170.643C241.737 170.643 244.225 170.643 246.704 170.643C250.016 170.643 252.803 170.553 255.138 170.553C259.807 170.553 262.539 172.715 261.544 173.701C260.549 174.67 260.332 175.457 261.083 175.457C261.834 175.457 262.956 174.959 263.607 174.335C264.25 173.729 266.105 175.584 266.439 178.832C266.62 180.479 266.684 182.424 266.684 184.759C266.684 217.08 266.684 249.402 266.684 281.715C266.711 299.893 275.28 329.211 252.242 329.211ZM371.258 332.179C358.998 331.174 350.003 326.75 343.497 320.099C339.986 316.525 338.638 312.281 339.525 311.412C340.421 310.534 340.837 308.707 340.493 307.304C340.149 305.902 339 305.712 337.842 306.906C336.666 308.1 333.851 305.458 332.286 300.708C331.345 297.884 330.585 294.917 329.961 291.876C328.974 286.972 330.82 280.656 333.544 277.842C336.277 275.019 338.502 268.766 338.502 263.853C338.502 258.948 336.168 257.32 333.309 260.215C330.44 263.111 328.259 262.233 328.522 258.243C328.748 254.261 331.092 248.877 333.734 246.208C336.376 243.548 338.502 240.462 338.502 239.322C338.502 238.616 338.502 237.919 338.502 237.25C338.502 237.042 338.484 236.824 338.466 236.616C338.439 236.263 336.358 238.173 333.797 240.878C331.245 243.575 329.391 241.711 329.21 236.716C329.191 236.218 329.164 235.73 329.128 235.241C328.875 230.246 329.02 225.206 330.241 223.894C331.472 222.582 331.408 220.528 329.798 219.831C328.83 219.406 327.789 219.162 326.712 219.162C326.54 219.162 326.359 219.162 326.196 219.162C325.916 219.162 324.124 215.198 320.333 211.95C316.37 208.566 310.741 206.566 302.779 206.566C298.227 206.566 297.802 177.638 307.963 175.149C312.786 173.955 319.446 170.462 321.88 166.282C322.64 164.97 323.301 163.694 323.889 162.427C324.866 160.237 328.395 155.803 331.987 152.627C335.58 149.433 338.493 146.194 338.493 145.379C338.493 144.547 335.761 146.519 332.395 149.777C329.029 153.034 327.336 151.876 327.762 147.053C328.187 142.23 330.983 135.48 334.603 132.024C337.028 129.707 339.416 127.418 341.742 125.183C341.823 125.101 341.914 125.011 342.004 124.92C342.158 124.776 341.489 124.667 340.557 124.667C339.615 124.667 336.421 127.011 333.444 129.897C330.467 132.775 328.06 135.001 328.06 134.874C328.06 134.729 330.295 132.413 333.046 129.671C335.788 126.929 335.706 126.739 332.974 129.354C330.232 131.978 328.051 133.209 328.042 132.096C328.033 131.444 328.033 130.775 328.033 130.078C328.033 128.902 327.898 127.906 327.689 127.065C327.273 125.445 330.404 124.387 335.399 124.387C340.222 124.387 345.036 124.387 349.868 124.387C351.351 124.387 352.691 124.441 353.84 124.549C356.03 124.748 357.025 125.97 356.111 126.848C355.197 127.735 355.559 128.449 356.925 128.449C358.292 128.449 359.749 128.133 360.174 127.753C360.608 127.364 363.088 130.639 362.798 135.634C362.599 139.109 362.065 143.425 362.065 148.646C362.074 162.219 368.68 167.521 380.615 170.978C381.402 171.258 382.497 171.43 384.098 171.43C405.589 171.43 399.526 184.578 399.526 202.259C399.526 203.318 399.707 204.186 399.961 204.865C400.513 206.231 400.241 206.738 398.621 206.647C397.78 206.602 396.803 206.575 395.644 206.575C392.622 206.575 389.663 206.403 386.732 207.272C357.523 215.759 362.092 237.331 362.092 264.685C362.092 272.793 359.513 288.356 368.652 293.342C373.394 295.939 400.16 299.07 400.16 302.237C400.123 327.229 401.616 334.667 371.258 332.179Z" fill="#794FB5"/>
</svg>
