<svg width="443" height="443" viewBox="0 0 443 443" fill="none" xmlns="http://www.w3.org/2000/svg">
<g clip-path="url(#clip0)">
<path d="M434.539 98.499L395.711 59.671C390.387 54.343 383.912 51.678 376.301 51.678C368.683 51.678 362.208 54.343 356.884 59.671L169.59 247.248L85.651 163.023C80.321 157.693 73.85 155.031 66.239 155.031C58.623 155.031 52.152 157.693 46.822 163.023L7.994 201.852C2.664 207.181 0 213.654 0 221.269C0 228.878 2.664 235.357 7.994 240.685L111.345 344.034L150.176 382.862C155.503 388.194 161.976 390.856 169.59 390.856C177.201 390.856 183.674 388.187 189.004 382.862L227.834 344.034L434.539 137.33C439.864 132 442.533 125.528 442.533 117.913C442.537 110.302 439.864 103.829 434.539 98.499Z" fill="#7300B5"/>
</g>
<defs>
<clipPath id="clip0">
<rect width="442.533" height="442.533" fill="white"/>
</clipPath>
</defs>
</svg>
