<svg width="450" height="450" viewBox="0 0 450 450" fill="none" xmlns="http://www.w3.org/2000/svg">
<g clip-path="url(#clip0)">
<path d="M444.809 144.498C442.701 141.143 439.261 138.754 435.371 137.94C425.264 135.822 415.328 134.696 405.798 134.593L403.889 134.586L403.23 134.593C399.834 134.624 397.105 137.401 397.136 140.797C397.166 144.175 399.913 146.891 403.284 146.891H403.339L403.92 146.887L405.705 146.894C414.394 146.987 423.523 148.024 432.848 149.977C433.73 150.163 434.201 150.729 434.403 151.048C434.633 151.416 434.87 152.013 434.685 152.772C430.297 170.673 414.569 211.301 361.492 221.344C362.357 202.324 360.764 184.646 356.685 168.517C355.94 165.574 355.113 162.697 354.21 159.879C359.648 156.596 366.858 153.139 375.867 150.629C379.135 149.72 381.051 146.328 380.138 143.059C379.228 139.787 375.839 137.872 372.567 138.781C363.39 141.339 355.841 144.755 349.843 148.168C349.218 146.705 348.559 145.267 347.886 143.839C360.908 127.115 375.149 98.6229 371.321 56.3324C369.941 41.1163 365.718 26.2814 358.766 12.236L355.758 6.15577C353.657 1.9123 349.269 -0.473792 344.563 0.0789572C339.862 0.631707 336.141 3.9688 335.08 8.58306C332.028 21.8559 325.913 41.2228 314.106 58.1108C305.952 69.7769 296.271 78.4939 285.175 84.2205C275.136 79.8534 264.575 76.6708 253.809 74.6658C237.161 71.5622 218.645 70.6833 201.922 73.7183C189.271 76.0185 176.894 79.5994 165.242 84.6016C153.84 78.8818 143.918 70.031 135.585 58.1108C123.782 41.2228 117.664 21.8559 114.612 8.58306C113.551 3.9688 109.829 0.631707 105.129 0.0789572C100.429 -0.473792 96.0346 1.9123 93.9334 6.15577L90.9259 12.236C83.9737 26.2814 79.7508 41.1198 78.3706 56.3324C74.5666 98.3311 88.5913 126.727 101.538 143.499C100.738 144.851 100.021 146.31 99.3545 147.818C82.8613 138.538 54.8633 129.44 14.3203 137.94C10.4339 138.754 6.99382 141.143 4.88239 144.494C2.76408 147.862 2.1152 151.838 3.06278 155.697C5.4317 165.372 11.6149 184.103 26.3675 200.837C42.102 218.686 63.2438 229.817 89.2917 234.023C89.5389 236.374 89.8067 238.729 90.1226 241.074C91.5233 251.608 93.288 262.045 96.371 272.224C99.7184 283.286 110.561 320.385 112.253 342.118C103.546 361.23 101.802 384.144 109.043 403.281C118.608 428.556 138.232 443.693 167.37 448.273C170.724 448.802 173.873 446.508 174.401 443.151C174.927 439.796 172.637 436.652 169.279 436.123C144.481 432.226 128.54 420.062 120.544 398.927C111.288 374.466 120.029 341.342 140.031 325.092C149.387 317.495 161.517 311.713 177.114 307.418C208.785 298.698 240.907 298.698 272.578 307.418C288.175 311.71 300.305 317.495 309.66 325.092C329.662 341.342 338.403 374.466 329.147 398.927C319.51 424.398 298.19 436.998 263.967 437.445C241.83 437.733 220.29 437.778 198.118 437.582C198.101 437.582 198.084 437.582 198.063 437.582C194.692 437.582 191.945 440.298 191.914 443.676C191.883 447.071 194.613 449.849 198.008 449.88C207.079 449.959 216.043 450 224.987 450C237.995 450 250.956 449.914 264.129 449.743C303.436 449.228 329.182 433.596 340.652 403.281C347.882 384.178 346.152 361.309 337.487 342.217C337.682 341.699 337.82 341.153 337.875 340.576C339.886 319.201 349.558 285.669 353.623 272.245C354.938 267.898 356.047 263.408 356.919 258.896C358.56 250.378 359.782 242.073 360.582 233.988C386.547 229.762 407.627 218.645 423.328 200.837C438.08 184.103 444.26 165.372 446.632 155.697C447.577 151.841 446.931 147.862 444.809 144.498V144.498ZM324.186 65.1592C336.148 48.0446 342.733 28.8254 346.262 14.6942L347.745 17.688C354.021 30.3703 357.832 43.7462 359.071 57.4413C361.687 86.3148 355.741 111.329 341.404 131.911C331.733 116.307 318.673 103.35 302.313 93.1915C300.998 92.3744 299.663 91.5882 298.32 90.8226C308.047 84.4368 316.692 75.8778 324.186 65.1592V65.1592ZM90.6204 57.4413C91.8598 43.7462 95.6741 30.3703 101.95 17.6914L103.433 14.6942C106.963 28.8254 113.544 48.0446 125.505 65.1592C133.134 76.07 141.954 84.7424 151.893 91.1591C134.943 100.611 120.129 113.564 109.098 130.548C108.854 130.926 108.61 131.304 108.37 131.681C108.35 131.716 108.329 131.754 108.308 131.791C97.0062 115.442 87.5545 91.2758 90.6204 57.4413ZM15.007 152.768C14.8216 152.013 15.0585 151.416 15.2885 151.048C15.4911 150.729 15.9614 150.163 16.8438 149.977C27.2258 147.8 36.6535 146.915 45.1267 146.915C63.0001 146.915 76.6162 150.853 85.9031 154.914C89.4359 156.459 92.5327 158.1 95.2175 159.707C94.8158 161.094 94.4244 162.457 94.0467 163.755C91.6641 171.977 90.0573 180.416 89.096 188.92C88.0592 198.132 87.7777 207.418 88.0764 216.681C88.1279 218.243 88.2103 219.802 88.2927 221.361C35.1463 211.349 19.3981 170.683 15.007 152.768ZM102.146 238.005C99.4403 216.709 99.279 194.757 104.199 173.756C109.874 149.541 123.624 127.84 142.953 112.218C152.741 104.308 163.793 98.0049 175.51 93.4353C190.297 87.6709 203.601 85.0925 219.318 84.4608C219.531 84.454 219.741 84.4471 219.95 84.4402C217.55 97.4522 218.302 109.194 222.346 125.488C227.792 147.385 222.71 157.111 217.485 161.417C211.971 165.962 203.934 166.58 195.423 167.233C188.958 167.73 182.277 168.242 175.85 170.449C160.785 175.63 150.99 188.979 144.937 198.568C143.214 201.297 141.549 204.092 139.942 206.797C135.036 215.044 130.401 222.837 124.06 229.058C119.113 233.913 111.913 236.869 102.149 238.036C102.149 238.026 102.146 238.015 102.146 238.005ZM344.841 256.565C344.051 260.661 343.045 264.74 341.854 268.681C338.455 279.894 331.245 304.823 327.537 325.834C324.509 322.03 321.127 318.562 317.416 315.548C306.711 306.852 293.116 300.315 275.843 295.56C242.005 286.245 207.69 286.245 173.849 295.56C156.576 300.315 142.977 306.852 132.276 315.548C128.661 318.483 125.368 321.848 122.405 325.528C118.701 304.692 111.611 280.131 108.14 268.657C107 264.894 106.111 261.406 105.428 257.997C104.903 255.363 104.429 252.768 103.983 250.19C116.356 248.648 125.79 244.587 132.674 237.837C140.155 230.5 145.422 221.646 150.513 213.083C152.079 210.45 153.699 207.724 155.337 205.135C163.384 192.388 171.174 185.065 179.847 182.081C184.784 180.385 190.411 179.953 196.364 179.496C206.406 178.724 216.791 177.927 225.309 170.903C236.711 161.506 239.815 144.776 234.284 122.522C230.432 107.021 229.9 96.6831 232.474 84.5226C255.611 85.6556 277.446 92.2268 295.824 103.639C320.832 119.171 337.298 142.012 344.762 171.531C350.969 196.072 350.996 224.681 344.841 256.565V256.565Z" fill="#7300B5"/>
<path d="M181.542 252.744C181.542 258.099 177.199 262.442 171.843 262.442C166.484 262.442 162.141 258.099 162.141 252.744C162.141 247.384 166.484 243.041 171.843 243.041C177.199 243.041 181.542 247.384 181.542 252.744V252.744Z" fill="#7300B5"/>
<path d="M287.55 252.744C287.55 258.099 283.207 262.442 277.848 262.442C272.492 262.442 268.149 258.099 268.149 252.744C268.149 247.384 272.492 243.041 277.848 243.041C283.207 243.041 287.55 247.384 287.55 252.744V252.744Z" fill="#7300B5"/>
<path d="M206.049 373.95C206.049 366.414 202.475 360.303 198.063 360.303C193.651 360.303 190.077 366.414 190.077 373.95C190.077 381.483 193.651 387.594 198.063 387.594C202.475 387.594 206.049 381.483 206.049 373.95V373.95Z" fill="#7300B5"/>
<path d="M259.614 373.95C259.614 366.414 256.04 360.303 251.628 360.303C247.22 360.303 243.642 366.414 243.642 373.95C243.642 381.483 247.22 387.594 251.628 387.594C256.04 387.594 259.614 381.483 259.614 373.95V373.95Z" fill="#7300B5"/>
</g>
<defs>
<clipPath id="clip0">
<rect width="450" height="450" fill="white"/>
</clipPath>
</defs>
</svg>
