<svg width="420" height="420" viewBox="0 0 420 420" fill="none" xmlns="http://www.w3.org/2000/svg">
<g clip-path="url(#clip0)">
<path d="M406.453 404.875H420.002V418.423H406.453V404.875Z" fill="#794FB5"/>
<path d="M0 404.875H13.5484V418.423H0V404.875Z" fill="#794FB5"/>
<path d="M344.981 312.293C337.721 291.55 320.448 276.321 299.738 271.241L268.53 164.249C261.633 140.599 240.884 123.522 216.774 120.786V91.2648L323.372 53.1931L203.226 1.69531V120.786C199.134 121.253 195.132 122.106 191.282 123.366C179.672 114.561 164.221 111.402 150.223 115.223C140.376 93.7291 118.909 79.7143 94.8387 79.7143C61.2191 79.7143 33.871 107.062 33.871 140.682C33.871 143.133 34.0397 145.571 34.3307 147.999C14.9178 151.045 0 167.838 0 188.101C0 210.518 18.2288 228.747 40.6452 228.747H132.659L128.71 242.295C101.788 242.295 77.7213 260.348 70.1863 286.185L35.5645 404.876H20.3226V418.424H392.903V404.876H377.39L344.981 312.293ZM216.774 22.2494L286.306 52.042L216.774 76.8763V22.2494ZM227.62 343.094C231.494 347.302 236.697 350.682 243.831 350.682C258.17 350.682 264.852 337.335 270.21 326.612C275.357 316.302 278.9 310.037 284.47 310.037C290.043 310.037 293.586 316.302 298.743 326.612C304.114 337.335 310.786 350.682 325.141 350.682C332.303 350.682 337.512 347.288 341.399 343.068L363.028 404.876H206.004L227.62 343.094ZM332.193 316.761L335.885 327.316C331.909 334.388 328.866 337.134 325.141 337.134C319.565 337.134 316.022 330.866 310.869 320.555C305.504 309.832 298.822 296.488 284.47 296.488C270.121 296.488 263.443 309.832 258.084 320.555C252.934 330.866 249.398 337.134 243.831 337.134C240.117 337.134 237.09 334.401 233.128 327.353L236.832 316.761C243.917 296.535 263.082 282.94 284.516 282.94C305.95 282.94 325.115 296.535 332.193 316.761V316.761ZM284.516 269.392C257.33 269.392 233.032 286.632 224.045 312.293L208.125 357.787L187.24 286.185C181.008 264.817 163.461 248.811 142.354 243.893L152.975 207.481C156.918 211.824 162.147 215.198 169.315 215.198C183.654 215.198 190.336 201.852 195.694 191.128C200.841 180.818 204.384 174.553 209.954 174.553C215.527 174.553 219.07 180.818 224.226 191.128C229.598 201.852 236.27 215.198 250.625 215.198C257.813 215.198 263.056 211.798 267.012 207.448L285.085 269.418C284.897 269.412 284.705 269.392 284.516 269.392ZM255.524 168.05L262.08 190.526C257.691 198.643 254.562 201.65 250.625 201.65C245.049 201.65 241.506 195.382 236.353 185.072C230.987 174.348 224.306 161.005 209.954 161.005C195.605 161.005 188.927 174.348 183.568 185.072C178.418 195.382 174.882 201.65 169.315 201.65C165.392 201.65 162.276 198.656 157.907 190.572L164.476 168.05C170.344 147.942 189.062 133.908 210 133.908C230.938 133.908 249.656 147.942 255.524 168.05ZM40.6452 215.198C25.7009 215.198 13.5484 203.046 13.5484 188.101C13.5484 173.157 25.7009 161.005 40.6452 161.005C55.5894 161.005 67.7419 173.157 67.7419 188.101H81.2903C81.2903 168.232 66.9481 151.677 48.0776 148.167C47.684 145.7 47.4194 143.203 47.4194 140.682C47.4194 114.541 68.6979 93.2627 94.8387 93.2627C115.356 93.2627 133.46 106.378 139.867 125.887L142.199 132.965L149.026 129.978C157.907 126.088 168.114 126.409 176.767 130.339C164.837 138.128 155.631 149.997 151.477 164.249L136.608 215.198H40.6452ZM128.71 255.843C149.647 255.843 168.366 269.878 174.234 289.986L178.153 303.431C174.389 309.15 171.693 310.037 169.335 310.037C163.758 310.037 160.216 303.769 155.062 293.459C149.697 282.735 143.016 269.392 128.663 269.392C114.315 269.392 107.636 282.735 102.278 293.459C97.1276 303.769 93.5917 310.037 88.0248 310.037C85.6797 310.037 82.9971 309.14 79.2528 303.471L83.1856 289.986C89.0535 269.878 107.772 255.843 128.71 255.843V255.843ZM74.794 318.763C78.2902 321.614 82.5704 323.585 88.0248 323.585C102.364 323.585 109.045 310.239 114.404 299.515C119.551 289.205 123.093 282.94 128.663 282.94C134.237 282.94 137.779 289.205 142.936 299.515C148.308 310.239 154.98 323.585 169.335 323.585C174.882 323.585 179.205 321.439 182.606 318.687L200.427 379.783L191.642 404.876H49.6752L74.794 318.763Z" fill="#794FB5"/>
</g>
<defs>
<clipPath id="clip0">
<rect width="420" height="420" fill="white"/>
</clipPath>
</defs>
</svg>
