<?xml version="1.0" encoding="iso-8859-1"?>
<!-- Generator: Adobe Illustrator 19.0.0, SVG Export Plug-In . SVG Version: 6.00 Build 0)  -->
<svg version="1.1" id="Capa_1" xmlns="http://www.w3.org/2000/svg" xmlns:xlink="http://www.w3.org/1999/xlink" x="0px" y="0px"
	 viewBox="0 0 512.003 512.003" style="enable-background:new 0 0 512.003 512.003;" xml:space="preserve" fill="#7300B5">
<g>
	<g>
		<path d="M256.001,0c-51.613,0-93.932,40.356-96.34,91.877c-0.194,4.139,3.004,7.649,7.141,7.843
			c4.175,0.198,7.648-3.004,7.843-7.142c2.033-43.5,37.77-77.576,81.356-77.576c44.912,0,81.45,36.538,81.45,81.451
			c0,35.531-22.712,66.699-56.515,77.558c-1.723,0.553-3.187,1.71-4.123,3.258L256,211.669l-20.813-34.401
			c-0.937-1.548-2.4-2.705-4.123-3.258c-25.635-8.234-45.507-28.558-53.159-54.365c-1.178-3.972-5.354-6.237-9.322-5.059
			c-3.972,1.177-6.236,5.351-5.059,9.322c8.791,29.649,31.202,53.186,60.248,63.47l25.811,42.662
			c1.358,2.246,3.792,3.618,6.417,3.618c2.625,0,5.059-1.372,6.417-3.618l25.81-42.662c38.532-13.625,64.224-49.81,64.224-90.928
			C352.451,43.267,309.183,0,256.001,0z"/>
	</g>
</g>
<g>
	<g>
		<path d="M297.827,52.261c-15.494-15.493-40.706-15.495-56.2,0c-13.68,13.68-15.272,34.932-4.794,50.386l-32.098,32.098
			c-2.931,2.929-2.931,7.678-0.002,10.607c1.465,1.464,3.385,2.197,5.304,2.197c1.919,0,3.839-0.732,5.304-2.197l32.098-32.098
			c6.703,4.545,14.493,6.826,22.287,6.826c10.177,0,20.354-3.874,28.101-11.621C313.32,92.966,313.32,67.754,297.827,52.261z
			 M287.218,97.853c-9.645,9.645-25.341,9.646-34.985,0c-9.645-9.645-9.645-25.339,0-34.985c4.822-4.823,11.157-7.234,17.492-7.234
			c6.336,0,12.671,2.412,17.493,7.234C296.864,72.513,296.864,88.208,287.218,97.853z"/>
	</g>
</g>
<g>
	<g>
		<path d="M217.951,279.338l-67.023-20.845c-3.96-1.231-8.159,0.979-9.39,4.934c-1.228,3.955,0.981,8.159,4.936,9.389l67.023,20.845
			c0.742,0.23,1.492,0.34,2.229,0.34c3.197,0,6.16-2.061,7.16-5.274C224.115,284.771,221.907,280.568,217.951,279.338z"/>
	</g>
</g>
<g>
	<g>
		<path d="M217.951,305.912l-67.023-20.845c-3.96-1.229-8.159,0.979-9.39,4.934c-1.228,3.955,0.981,8.159,4.936,9.389l67.023,20.845
			c0.742,0.23,1.492,0.34,2.229,0.34c3.197,0,6.16-2.061,7.16-5.274C224.115,311.345,221.907,307.142,217.951,305.912z"/>
	</g>
</g>
<g>
	<g>
		<path d="M217.951,332.486l-67.023-20.845c-3.96-1.229-8.159,0.98-9.39,4.934c-1.228,3.955,0.981,8.159,4.936,9.389l67.023,20.845
			c0.742,0.23,1.492,0.34,2.229,0.34c3.197,0,6.16-2.061,7.16-5.274C224.115,337.919,221.907,333.716,217.951,332.486z"/>
	</g>
</g>
<g>
	<g>
		<g>
			<path d="M439.923,213.614C441.858,215.026,437.991,212.203,439.923,213.614L439.923,213.614z"/>
			<path d="M439.923,213.614c-1.933-1.411-4.425-1.816-6.707-1.086l-10.697,3.421v-12.373c0-2.395-1.144-4.646-3.078-6.058
				c-1.934-1.412-4.424-1.816-6.707-1.086l-156.733,50.135l-95.275-30.476c-3.94-1.262-8.166,0.913-9.429,4.858
				c-1.262,3.945,0.913,8.167,4.858,9.429l92.346,29.539v17.174v37.27v98.251l-144.019-46.068V213.85l22.125,7.078
				c3.943,1.262,8.166-0.913,9.429-4.858c1.262-3.945-0.913-8.167-4.858-9.429l-31.91-10.208c-2.283-0.73-4.774-0.326-6.707,1.086
				c-1.935,1.412-3.078,3.663-3.078,6.058v12.373l-10.697-3.421c-2.282-0.73-4.773-0.325-6.707,1.086
				c-1.935,1.412-3.078,3.663-3.078,6.058v37.28v152.861v37.27c0,3.262,2.108,6.149,5.215,7.144l179.501,57.42
				c1.474,0.472,3.096,0.471,4.57,0l92.231-29.5c3.945-1.262,6.12-5.483,4.858-9.428c-1.262-3.945-5.483-6.12-9.429-4.859
				l-82.445,26.371v-21.522l164.501-52.622v21.521l-52.516,16.802c-3.945,1.262-6.12,5.483-4.858,9.428
				c1.02,3.186,3.968,5.217,7.142,5.217c0.757,0,1.527-0.116,2.287-0.358l57.73-18.47c3.106-0.994,5.215-3.882,5.215-7.144v-37.27
				V256.953v-37.28C443.002,217.277,441.858,215.026,439.923,213.614z M248.501,494.231L84,441.609v-21.521l164.501,52.622V494.231z
				 M248.501,456.961L84,404.338V256.953v-27.007l5.482,1.754V372.02c0,3.262,2.108,6.149,5.215,7.144l153.804,49.198V456.961z
				 M263.501,314.363v-37.27v-17.174L407.52,213.85v152.695l-144.019,46.068V314.363z M428.002,256.953v147.386l-164.501,52.622
				v-28.598l153.804-49.198c3.106-0.994,5.215-3.882,5.215-7.144V231.699l5.482-1.754V256.953z"/>
		</g>
	</g>
</g>
<g>
	<g>
		<path d="M355.341,252.955c-1.933-1.412-4.424-1.816-6.707-1.086l-39.859,12.75c-3.106,0.994-5.215,3.882-5.215,7.144v42.222
			c0,2.395,1.144,4.646,3.078,6.058c1.3,0.949,2.852,1.442,4.423,1.442c0.766,0,1.536-0.117,2.284-0.356l39.859-12.75
			c3.106-0.994,5.215-3.882,5.215-7.144v-42.222C358.42,256.618,357.276,254.367,355.341,252.955z M343.42,295.76l-24.859,7.952
			v-26.474l24.859-7.952V295.76z"/>
	</g>
</g>
<g>
</g>
<g>
</g>
<g>
</g>
<g>
</g>
<g>
</g>
<g>
</g>
<g>
</g>
<g>
</g>
<g>
</g>
<g>
</g>
<g>
</g>
<g>
</g>
<g>
</g>
<g>
</g>
<g>
</g>
</svg>
