<svg width="400" height="469" viewBox="0 0 400 469" fill="none" xmlns="http://www.w3.org/2000/svg">
<path d="M347.79 416.752C347.79 421.364 345.958 425.787 342.697 429.048C339.436 432.309 335.013 434.141 330.401 434.141H52.1686C47.5566 434.141 43.1335 432.309 39.8723 429.048C36.6111 425.787 34.779 421.364 34.779 416.752V51.5721H208.674V16.793H0V416.752C0 430.588 5.49632 443.857 15.2798 453.641C25.0633 463.424 38.3326 468.92 52.1686 468.92H330.401C344.237 468.92 357.506 463.424 367.29 453.641C377.073 443.857 382.569 430.588 382.569 416.752V190.688H347.79V416.752Z" fill="#7300B5"/>
<path d="M384.656 14.7067C374.704 5.26405 361.509 0 347.79 0C334.072 0 320.876 5.26405 310.925 14.7067L208.674 116.783L191.285 208.948L282.58 190.689L384.656 88.6121C389.52 83.7655 393.378 78.0065 396.012 71.6653C398.645 65.3241 400 58.5255 400 51.6594C400 44.7933 398.645 37.9947 396.012 31.6535C393.378 25.3124 389.52 19.5533 384.656 14.7067V14.7067ZM265.364 158.518L234.758 164.604L240.845 133.999L298.578 76.0917L323.271 100.785L265.364 158.518ZM360.137 63.919L347.79 76.0917L323.271 51.5725L335.444 39.2259C337.06 37.596 338.984 36.3023 341.103 35.4195C343.222 34.5367 345.495 34.0821 347.79 34.0821C350.086 34.0821 352.359 34.5367 354.478 35.4195C356.597 36.3023 358.52 37.596 360.137 39.2259C361.767 40.8425 363.06 42.7658 363.943 44.8849C364.826 47.0039 365.281 49.2768 365.281 51.5725C365.281 53.8681 364.826 56.141 363.943 58.2601C363.06 60.3792 361.767 62.3024 360.137 63.919V63.919Z" fill="#7300B5"/>
</svg>
