<svg width="450" height="324" viewBox="0 0 450 324" fill="none" xmlns="http://www.w3.org/2000/svg">
<path d="M183.534 299.796C117.45 282.255 71.296 222.195 71.296 153.741C71.296 127.596 78.0755 101.934 90.8895 79.3302C98.1108 77.2255 117.348 70.2654 127.029 53.7383C138.834 33.5847 131.28 7.97793 130.952 6.89797C129.955 3.61166 126.601 1.64548 123.247 2.38356C122.145 2.62638 96.1148 8.5591 84.3089 28.7127C74.7156 45.089 77.9072 65.0673 79.6157 72.5586C72.9975 84.1777 67.8467 96.5384 64.2571 109.355C61.3766 103.886 57.46 98.4879 52.119 94.1252C52.119 94.1243 52.119 94.1243 52.119 94.1243C34.0307 79.3495 7.56483 82.8576 6.44719 83.0162C3.04779 83.4922 0.586343 86.505 0.7976 89.9316C0.867726 91.058 2.70855 117.692 20.7978 132.469C32.8859 142.343 48.7143 144.051 58.2192 144.051C58.2972 144.051 58.3717 144.05 58.4488 144.05C58.2595 147.272 58.1473 150.502 58.1473 153.741C58.1473 168.637 60.1634 183.168 63.9564 197.035C59.3219 194.193 54.0422 191.869 48.191 190.728C25.2648 186.258 3.60442 201.864 2.69278 202.531C-0.0781086 204.558 -0.822329 208.376 0.984312 211.296C1.20521 211.652 6.48926 220.111 15.5935 227.716C18.381 230.044 22.5273 229.672 24.8537 226.885C27.1819 224.098 26.8103 219.952 24.0227 217.625C20.7934 214.926 18.1321 212.072 16.1545 209.707C22.8218 206.158 34.3796 201.431 45.6752 203.634C56.9709 205.836 65.9077 214.557 70.7508 220.347C64.7024 223.566 54.6252 227.754 44.3709 226.857C40.8076 226.553 37.5607 229.268 37.2486 232.834C36.9366 236.403 39.6575 239.644 43.226 239.956C44.5663 240.073 45.8944 240.128 47.2128 240.128C59.6778 240.127 70.9901 235.218 77.7451 231.522C85.523 245.976 95.4249 259.192 107.09 270.714C100.911 270.588 94.2932 271.401 87.8907 273.964C66.2048 282.639 56.4651 307.496 56.0619 308.551C54.8329 311.757 56.2775 315.368 59.3789 316.842C60.117 317.192 73.0001 323.2 88.286 323.2C94.1153 323.2 100.295 322.326 106.281 319.932C120.882 314.091 130.06 300.922 134.627 292.614C148.447 301.363 163.735 308.146 180.161 312.506C183.717 313.448 187.45 311.186 188.26 307.599C189.03 304.196 186.904 300.691 183.534 299.796ZM29.1148 122.286C20.1947 114.999 16.4438 103.074 14.9159 95.6837C22.4431 95.6925 34.8275 96.9802 43.8002 104.309C52.7124 111.59 56.4642 123.5 57.9947 130.892C50.4421 130.865 38.0244 129.565 29.1148 122.286ZM95.6546 35.3598C101.471 25.4299 112.658 19.8837 119.725 17.2303C120.867 24.6962 121.499 37.1647 115.684 47.092C109.868 57.022 98.6805 62.5681 91.6135 65.2215C90.4713 57.7557 89.8384 45.2871 95.6546 35.3598ZM101.397 307.723C90.7027 312.001 78.4516 309.51 71.2461 307.27C74.8979 300.687 82.0184 290.474 92.775 286.171C103.47 281.892 115.72 284.383 122.926 286.623C119.275 293.206 112.155 303.419 101.397 307.723Z" fill="#7300B5"/>
<path d="M447.308 202.531C446.396 201.864 424.733 186.259 401.81 190.728C395.958 191.869 390.679 194.193 386.044 197.035C389.838 183.168 391.853 168.637 391.853 153.741C391.853 150.501 391.741 147.269 391.551 144.047C391.627 144.047 391.701 144.048 391.779 144.048C397.598 144.048 405.788 143.412 414.005 140.667C417.449 139.516 419.307 135.791 418.156 132.347C417.005 128.904 413.281 127.046 409.836 128.195C403.346 130.365 396.723 130.879 392.005 130.894C393.536 123.499 397.288 111.589 406.2 104.309C415.113 97.0284 427.533 95.7285 435.081 95.7039C434.007 100.894 431.836 108.31 427.546 114.798C425.543 117.826 426.375 121.905 429.404 123.908C432.431 125.911 436.51 125.079 438.514 122.051C448.008 107.694 449.159 90.6504 449.203 89.9316C449.414 86.505 446.954 83.4922 443.553 83.0162C442.435 82.8584 415.969 79.3495 397.882 94.1261C392.54 98.4897 388.624 103.887 385.744 109.356C382.154 96.5393 377.003 84.1786 370.385 72.5594C372.093 65.0682 375.285 45.0899 365.692 28.7135C353.886 8.55999 327.856 2.62726 326.754 2.38445C323.4 1.64636 320.044 3.61254 319.048 6.89886C318.72 7.97881 311.165 33.5856 322.97 53.7392C332.651 70.2663 351.89 77.2264 359.11 79.3311C371.924 101.935 378.704 127.597 378.704 153.742C378.704 222.196 332.55 282.256 266.465 299.797C263.094 300.692 260.969 304.197 261.738 307.599C262.55 311.186 266.283 313.448 269.838 312.506C286.264 308.146 301.553 301.363 315.372 292.614C319.939 300.922 329.117 314.091 343.717 319.932C349.705 322.327 355.883 323.2 361.713 323.2C376.996 323.2 389.882 317.192 390.62 316.842C393.721 315.368 395.165 311.757 393.937 308.551C393.533 307.497 383.793 282.639 362.107 273.964C355.705 271.402 349.087 270.588 342.908 270.714C354.573 259.192 364.475 245.978 372.253 231.524C379.005 235.22 390.314 240.127 402.788 240.127C405.574 240.127 408.419 239.882 411.282 239.324C434.207 234.854 448.422 212.255 449.015 211.296C450.822 208.376 450.078 204.557 447.308 202.531ZM357.226 286.171C367.92 290.449 375.072 300.702 378.745 307.295C371.56 309.542 359.358 312.026 348.603 307.723C337.908 303.444 330.756 293.191 327.083 286.599C334.268 284.35 346.469 281.867 357.226 286.171ZM334.317 47.092C328.5 37.1621 329.134 24.6918 330.275 17.2303C337.346 19.8855 348.531 25.4316 354.346 35.3598C360.163 45.2898 359.529 57.7601 358.388 65.2216C351.317 62.5664 340.132 57.0202 334.317 47.092ZM408.767 226.418C397.463 228.621 385.893 223.885 379.231 220.338C384.049 214.553 392.953 205.851 404.325 203.634C415.632 201.432 427.201 206.167 433.861 209.715C429.043 215.499 420.139 224.201 408.767 226.418Z" fill="#7300B5"/>
<path d="M287.957 216.758C287.957 201.322 275.398 188.762 259.961 188.762H259.82V99.9702C259.82 96.3394 256.876 93.3958 253.245 93.3958C249.614 93.3958 246.671 96.3394 246.671 99.9702V195.337C246.671 198.967 249.614 201.911 253.245 201.911H259.961C268.147 201.911 274.808 208.571 274.808 216.758C274.808 224.945 268.148 231.606 259.961 231.606H199.443C191.257 231.606 184.595 224.946 184.595 216.758C184.595 208.572 191.256 201.911 199.443 201.911H210.401C214.032 201.911 216.976 198.967 216.976 195.337V80.4566C216.976 77.7988 215.375 75.4022 212.92 74.3836C210.466 73.365 207.637 73.9251 205.757 75.8037L200.527 81.0237C194.732 86.8066 185.313 86.7978 179.53 81.0053C173.746 75.2111 173.756 65.7922 179.55 60.0076L221.334 18.3006C225.598 14.0465 231.949 12.7869 237.511 15.094C243.075 17.4021 246.671 22.7852 246.671 28.8091V73.6727C246.671 77.3035 249.614 80.2471 253.245 80.2471C256.876 80.2471 259.82 77.3035 259.82 73.6727V28.8091C259.82 17.4512 253.041 7.30034 242.548 2.94897C232.056 -1.39977 220.083 0.973145 212.046 8.99477L170.262 50.7018C159.336 61.6074 159.319 79.3679 170.225 90.2945C179.307 99.3926 193.145 100.925 203.829 94.8834V188.762H199.445C184.008 188.762 171.448 201.321 171.448 216.758C171.448 232.195 184.007 244.755 199.445 244.755H259.962C275.398 244.754 287.957 232.195 287.957 216.758Z" fill="#7300B5"/>
</svg>
