<svg width="420" height="420" viewBox="0 0 420 420" fill="none" xmlns="http://www.w3.org/2000/svg">
<g clip-path="url(#clip0)">
<path d="M417.764 244.695L390.974 149.03C385.801 130.545 373.017 114.962 355.898 106.274C338.778 97.5848 318.65 96.4659 300.674 103.206C287.531 108.139 276.37 116.81 268.404 128.274C268.404 128.274 268.367 128.304 268.29 128.304H152.127C152.058 128.304 152.021 128.279 152.018 128.279C144.055 116.811 132.897 108.14 119.746 103.205C101.768 96.4692 81.6395 97.5857 64.5212 106.274C47.4061 114.962 34.6224 130.545 29.4495 149.028L2.65964 244.694C-6.19073 276.287 7.625 306.81 35.5116 317.274C42.5302 319.906 49.9064 321.147 57.2606 321.147C81.1842 321.147 104.84 308.001 114.932 286.813L127.786 259.912C135.707 270.523 148.329 277.107 162.028 277.107C180.71 277.107 197.084 264.919 202.682 247.499H217.695C223.292 264.919 239.661 277.107 258.34 277.107C272.047 277.107 284.674 270.516 292.593 259.897L305.479 286.803C311.975 300.442 323.269 311.069 337.277 316.725C351.287 322.382 366.794 322.577 380.944 317.273C395.091 311.966 406.646 301.622 413.48 288.147C420.313 274.676 421.834 259.245 417.764 244.695ZM398.065 280.329C393.192 289.934 384.956 297.308 374.875 301.09C364.79 304.869 353.735 304.731 343.749 300.699C333.763 296.666 325.713 289.092 321.074 279.354L303.106 241.834C301.128 237.702 296.89 235.2 292.311 235.431C287.749 235.673 283.817 238.608 282.293 242.908C278.708 253.026 269.082 259.824 258.341 259.824C246.223 259.824 235.739 251.211 233.413 239.342C232.376 234.054 227.719 230.215 222.338 230.215H198.043C192.662 230.215 188.004 234.054 186.966 239.344C184.641 251.211 174.152 259.824 162.029 259.824C151.29 259.824 141.665 253.029 138.078 242.914C136.553 238.613 132.619 235.679 128.055 235.439C123.482 235.193 119.238 237.715 117.262 241.85L99.3337 279.37C89.9944 298.974 63.0093 309.123 41.5827 301.09C21.9903 293.739 12.8307 272.465 19.3038 249.355L46.0945 153.687C50.0238 139.647 59.3458 128.283 72.3453 121.685C79.7093 117.947 87.6114 116.065 95.5602 116.065C101.645 116.065 107.759 117.167 113.678 119.386C123.521 123.081 131.871 129.564 137.821 138.135C141.061 142.801 146.41 145.586 152.127 145.586H268.289C274.006 145.586 279.352 142.803 282.591 138.141C288.551 129.565 296.904 123.079 306.744 119.386C320.394 114.269 335.072 115.085 348.076 121.683C361.077 128.281 370.401 139.646 374.33 153.687L401.119 249.352C404.022 259.724 402.936 270.724 398.065 280.329Z" fill="#794FB5"/>
<path d="M325.633 164.493C331.663 164.493 336.552 159.605 336.552 153.575C336.552 147.545 331.663 142.656 325.633 142.656C319.603 142.656 314.715 147.545 314.715 153.575C314.715 159.605 319.603 164.493 325.633 164.493Z" fill="#794FB5"/>
<path d="M325.634 216.049C331.665 216.049 336.553 211.161 336.553 205.13C336.553 199.1 331.665 194.211 325.634 194.211C319.604 194.211 314.715 199.1 314.715 205.13C314.715 211.161 319.604 216.049 325.634 216.049Z" fill="#794FB5"/>
<path d="M299.857 190.272C305.887 190.272 310.776 185.383 310.776 179.353C310.776 173.322 305.887 168.434 299.857 168.434C293.826 168.434 288.938 173.322 288.938 179.353C288.938 185.383 293.826 190.272 299.857 190.272Z" fill="#794FB5"/>
<path d="M351.411 190.272C357.442 190.272 362.331 185.383 362.331 179.353C362.331 173.322 357.442 168.434 351.411 168.434C345.381 168.434 340.492 173.322 340.492 179.353C340.492 185.383 345.381 190.272 351.411 190.272Z" fill="#794FB5"/>
<path d="M120.732 170.709H105.43V155.408C105.43 150.635 101.562 146.766 96.7885 146.766C92.0159 146.766 88.1465 150.634 88.1465 155.408V170.709H72.8451C68.0725 170.709 64.2031 174.578 64.2031 179.351C64.2031 184.124 68.0717 187.993 72.8451 187.993H88.1465V203.294C88.1465 208.067 92.0151 211.936 96.7885 211.936C101.561 211.936 105.43 208.068 105.43 203.294V187.993H120.732C125.504 187.993 129.374 184.124 129.374 179.351C129.373 174.578 125.504 170.709 120.732 170.709Z" fill="#794FB5"/>
<path d="M190.341 170.711H180.888C176.116 170.711 172.246 174.58 172.246 179.353C172.246 184.126 176.115 187.995 180.888 187.995H190.341C195.114 187.995 198.983 184.126 198.983 179.353C198.983 174.58 195.114 170.711 190.341 170.711Z" fill="#794FB5"/>
<path d="M239.525 170.711H230.072C225.299 170.711 221.43 174.58 221.43 179.353C221.43 184.126 225.298 187.995 230.072 187.995H239.525C244.298 187.995 248.167 184.126 248.167 179.353C248.167 174.58 244.298 170.711 239.525 170.711Z" fill="#794FB5"/>
<path d="M162.029 217.004C152.434 217.004 144.629 224.809 144.629 234.404C144.629 243.999 152.434 251.804 162.029 251.804C171.624 251.804 179.429 243.999 179.429 234.404C179.428 224.809 171.623 217.004 162.029 217.004ZM162.029 238.841C159.582 238.841 157.591 236.851 157.591 234.404C157.591 231.957 159.582 229.967 162.029 229.967C164.476 229.967 166.466 231.957 166.466 234.404C166.466 236.851 164.476 238.841 162.029 238.841Z" fill="#794FB5"/>
<path d="M258.337 217.004C248.743 217.004 240.938 224.809 240.938 234.404C240.938 243.999 248.743 251.804 258.337 251.804C267.932 251.804 275.737 243.999 275.737 234.404C275.737 224.809 267.932 217.004 258.337 217.004ZM258.337 238.841C255.891 238.841 253.9 236.851 253.9 234.404C253.9 231.957 255.89 229.967 258.337 229.967C260.784 229.967 262.774 231.957 262.774 234.404C262.774 236.851 260.784 238.841 258.337 238.841Z" fill="#794FB5"/>
</g>
<defs>
<clipPath id="clip0">
<rect width="420" height="420" fill="white"/>
</clipPath>
</defs>
</svg>
