<svg width="420" height="420" viewBox="0 0 420 420" fill="none" xmlns="http://www.w3.org/2000/svg">
<path d="M342.935 296.422H293.46C283.235 296.415 273.183 299.061 264.287 304.101C256.714 308.397 250.163 314.284 245.088 321.358C241.707 320.768 238.281 320.473 234.849 320.476H185.329C181.897 320.472 178.471 320.768 175.09 321.358C170.015 314.283 163.465 308.396 155.891 304.101C146.995 299.061 136.943 296.415 126.718 296.422H77.2424C44.3663 296.495 17.733 323.128 17.6602 356.004V389.591C17.6844 393.109 20.5422 395.946 24.0597 395.946H125.57V413.6C125.57 417.135 128.436 420 131.97 420H288.031C291.565 420 294.431 417.135 294.431 413.6V395.946H395.942C399.476 395.946 402.341 393.081 402.341 389.547V356.004C402.268 323.196 375.742 296.592 342.935 296.422ZM126.232 374.32V375.688C126.232 376.306 126.232 376.88 126.232 377.498V380.058V383.147H30.4593V356.004C30.5321 330.196 51.4345 309.294 77.2424 309.221H126.718C134.729 309.212 142.606 311.28 149.58 315.223C154.255 317.867 158.449 321.285 161.982 325.33C142.067 333.974 128.389 352.718 126.232 374.32ZM281.499 380.058V407.245H138.546V379.572C138.546 379.072 138.546 378.587 138.546 378.116C138.546 377.351 138.546 376.585 138.546 375.821V374.673C138.546 374.232 138.546 373.791 138.546 373.349V371.937V371.496V371.01V370.039L138.811 368.98L139.252 367.391L139.561 366.332C145.901 347.117 163.816 334.107 184.049 334.025L185.329 333.319H234.849C258.347 333.405 278.165 350.846 281.235 374.144C281.235 375.115 281.235 376.086 281.499 377.057C281.499 378.057 281.499 379.057 281.499 380.058ZM389.718 383.191H294.387V379.352C294.387 378.866 294.387 378.381 294.387 377.895C294.387 377.395 294.387 376.894 294.387 376.395C294.387 375.688 294.387 374.938 294.387 374.232V373.57V372.82V371.451V371.231V370.701V370.216V369.907V369.333V368.715V368.406V368.009V367.612V367.214V366.244V365.802V365.228V364.655L294.078 363.551V363.11V362.713V362.404V361.962V361.389L293.46 359.667C287.709 344.38 275.98 332.094 260.977 325.639C263.631 321.709 266.86 318.198 270.554 315.223C277.527 311.28 285.404 309.212 293.416 309.221H342.935C368.742 309.294 389.646 330.196 389.718 356.004V383.191V383.191Z" fill="#794FB5"/>
<path d="M210.351 93.1365C214.349 93.1365 217.59 89.8958 217.59 85.8983C217.59 81.9008 214.349 78.6602 210.351 78.6602C206.354 78.6602 203.113 81.9008 203.113 85.8983C203.113 89.8958 206.354 93.1365 210.351 93.1365Z" fill="#794FB5"/>
<path d="M133.823 208.725C125.389 200.242 113.919 195.476 101.957 195.484C77.0704 195.462 56.8776 215.619 56.8555 240.507C56.8334 265.393 76.9899 285.586 101.878 285.608C126.765 285.63 146.957 265.474 146.979 240.586C146.989 228.642 142.258 217.182 133.823 208.725ZM124.775 263.32C112.178 275.922 91.7509 275.926 79.1481 263.329C66.5464 250.732 66.542 230.305 79.1393 217.702C91.7365 205.1 112.163 205.096 124.766 217.693C130.817 223.742 134.218 231.947 134.22 240.502C134.232 249.062 130.834 257.273 124.775 263.32Z" fill="#794FB5"/>
<path d="M257.137 93.1365C261.134 93.1365 264.375 89.8958 264.375 85.8983C264.375 81.9008 261.134 78.6602 257.137 78.6602C253.139 78.6602 249.898 81.9008 249.898 85.8983C249.898 89.8958 253.139 93.1365 257.137 93.1365Z" fill="#794FB5"/>
<path d="M285.47 25.0797C263.882 8.47612 237.321 -0.356407 210.088 0.0110169C182.854 -0.356407 156.295 8.47612 134.705 25.0797C114.932 40.8801 102.707 62.8593 102.707 87.1777C102.731 99.5289 105.874 111.674 111.843 122.486C117.523 132.7 125.156 141.698 134.308 148.967L129.232 182.73C128.704 186.2 131.089 189.441 134.559 189.969C135.997 190.188 137.466 189.908 138.721 189.174L173.235 169.048C178.704 170.675 184.279 171.928 189.918 172.8C196.607 173.83 203.365 174.347 210.132 174.344C237.365 174.712 263.926 165.879 285.514 149.276C305.243 133.431 317.468 111.496 317.468 87.1777C317.468 62.8593 305.243 40.8801 285.47 25.0797ZM277.526 139.389C258.167 154.118 234.409 161.893 210.088 161.457C203.986 161.466 197.892 161.009 191.86 160.089C185.875 159.194 179.972 157.821 174.206 155.984C172.494 155.445 170.635 155.652 169.086 156.558L143.885 171.431L147.548 147.157C147.898 144.786 146.893 142.418 144.944 141.022C135.892 134.472 128.364 126.041 122.877 116.307C117.969 107.382 115.389 97.363 115.374 87.1777C115.374 66.8756 125.746 48.4271 142.517 35.0101C161.876 20.2811 185.633 12.5067 209.955 12.9426C234.277 12.5067 258.035 20.2811 277.393 35.0101C294.165 48.2506 304.537 66.8756 304.537 87.1777C304.537 107.48 294.297 125.928 277.526 139.389Z" fill="#794FB5"/>
<path d="M318.254 195.441C293.367 195.419 273.174 215.576 273.152 240.464C273.141 252.408 277.874 263.868 286.309 272.325C294.742 280.807 306.213 285.574 318.175 285.565C343.061 285.587 363.254 265.431 363.276 240.543C363.298 215.655 343.141 195.463 318.254 195.441ZM341.035 263.302C328.438 275.904 308.011 275.908 295.409 263.311C289.358 257.262 285.957 249.058 285.955 240.502C285.943 231.942 289.341 223.731 295.4 217.684C307.997 205.083 328.424 205.078 341.027 217.676C353.628 230.273 353.633 250.701 341.035 263.302Z" fill="#794FB5"/>
<path d="M163.57 93.1365C167.568 93.1365 170.808 89.8958 170.808 85.8983C170.808 81.9008 167.568 78.6602 163.57 78.6602C159.573 78.6602 156.332 81.9008 156.332 85.8983C156.332 89.8958 159.573 93.1365 163.57 93.1365Z" fill="#794FB5"/>
<path d="M241.889 232.626C233.446 224.212 222.009 219.491 210.09 219.496C198.128 219.487 186.657 224.254 178.224 232.737C160.674 250.348 160.723 278.851 178.334 296.401C195.945 313.952 224.449 313.902 241.999 296.291C259.55 278.68 259.5 250.177 241.889 232.626ZM210.081 296.856C192.262 296.85 177.822 282.402 177.827 264.584C177.831 246.767 192.281 232.326 210.098 232.331C218.654 232.333 226.859 235.733 232.907 241.784C238.966 247.831 242.364 256.042 242.352 264.602C242.347 282.421 227.898 296.86 210.081 296.856Z" fill="#794FB5"/>
</svg>
