<?xml version="1.0" encoding="iso-8859-1"?>
<!-- Generator: Adobe Illustrator 19.0.0, SVG Export Plug-In . SVG Version: 6.00 Build 0)  -->
<svg version="1.1" id="Layer_1" xmlns="http://www.w3.org/2000/svg" xmlns:xlink="http://www.w3.org/1999/xlink" x="0px" y="0px"
	 viewBox="0 0 511.997 511.997" style="enable-background:new 0 0 511.997 511.997;" xml:space="preserve" fill="#7300B5">
<g>
	<g>
		<path d="M492.843,143.163c-3.661-19.871-17.735-33.168-40.704-38.453c-3.764-0.866-7.46-1.438-10.93-1.811
			c-3.698-7.345-12.593-21.79-30.309-35.005c-10.409-7.764-21.758-13.535-33.518-17.763L331.198,2.426
			c-2.286-2.361-5.787-3.077-8.817-1.801c-3.029,1.276-4.964,4.281-4.871,7.566l0.894,31.838
			c-14.062-0.295-27.491,0.658-39.389,2.133c-3.383,0.42-6.125,2.945-6.82,6.283c-0.695,3.339,0.812,6.748,3.747,8.482
			l35.707,21.099c-5.478,4.193-12.343,10.31-19.372,18.78c-2.811,3.386-2.343,8.409,1.042,11.218
			c3.385,2.81,8.409,2.344,11.219-1.043c13.209-15.917,25.542-22.064,25.633-22.108c2.653-1.269,4.392-3.898,4.522-6.839
			c0.129-2.939-1.373-5.711-3.907-7.207l-25.075-14.817c38.891-1.253,71.363,6.913,94.812,24.03
			c10.678,7.795,17.658,16.121,21.964,22.477c-1.233,0.087-1.98,0.168-2.11,0.183c-1.578,0.178-3.068,0.825-4.276,1.857
			c-17.051,14.554-21.944,38.087-13.055,57.797c-22.46,6.501-63.475,13.983-73.829-4.289c-2.17-3.828-7.032-5.172-10.859-3.004
			c-3.828,2.169-5.173,7.031-3.004,10.859c5.611,9.9,15.389,16.061,29.187,18.463c-1.377,7.25-3.108,18.873-3.379,32.531
			c-0.607,30.548,6.517,56.738,20.601,75.74c3.426,4.623,6.08,9.168,8.105,13.598l-18.593-9.078c-1.944-0.95-4.189-1.065-6.22-0.327
			c-2.032,0.74-3.675,2.274-4.554,4.25l-8.257,18.58l-16.269-14.854c-2.703-2.47-6.744-2.778-9.791-0.746l-26.915,17.943
			l-9.347-23.125c4.007,0.494,8.256,0.813,12.781,0.9c0.052,0.001,0.104,0.001,0.156,0.001c4.328,0,7.879-3.466,7.963-7.813
			c0.085-4.4-3.413-8.034-7.812-8.12c-41.215-0.797-54.845-22.391-55.366-23.241c-1.724-2.961-5.151-4.486-8.5-3.793
			c-8.052,1.666-13.956-1.028-17.987-4.415l6.316-1.202c4.322-0.822,7.16-4.994,6.337-9.317c-0.822-4.323-5.002-7.158-9.317-6.336
			l-17.957,3.418c-6.467-0.242-11.092-1.986-13.714-5.221c-2.239-2.761-2.952-6.344-3.105-9.238l16.468-3.042
			c4.326-0.799,7.187-4.954,6.387-9.281c-0.8-4.327-4.965-7.189-9.281-6.387l-22.533,4.162c-15.888,2.855-25.275-7.561-30.03-15.588
			l21.375-3.695c4.336-0.75,7.242-4.871,6.493-9.208c-0.749-4.335-4.872-7.249-9.207-6.492l-29.938,5.176
			c-9.09-2.348-14.574-7.221-16.728-14.878c-0.784-2.785-1.001-5.509-0.993-7.733l25.811-4.022c4.348-0.678,7.323-4.751,6.645-9.098
			c-0.677-4.347-4.738-7.324-9.097-6.645l-31.127,4.85c-5.624-0.28-10.156-2.954-13.838-8.174c-1.427-2.023-1.811-4.571-1.055-6.992
			c0.773-2.474,2.59-4.397,4.983-5.273c19.552-7.163,43.054-10.029,69.853-8.524c4.406,0.235,8.155-3.115,8.401-7.508
			c0.246-4.392-3.115-8.154-7.507-8.401c-28.981-1.626-54.625,1.559-76.227,9.472c-7.087,2.596-12.449,8.24-14.712,15.484
			c-2.246,7.191-1.064,14.818,3.243,20.925c4.949,7.016,11.318,11.668,18.708,13.733c-0.026,6.022,1.049,14.34,5.874,21.946
			c4.727,7.451,11.93,12.69,21.45,15.614c5.411,12.97,18.661,30.716,40.725,31.45c0.133,1.658,0.382,3.435,0.802,5.267
			c-13.623,1.456-26.468,7.23-37.101,16.857c-1.248,1.13-2.448,2.317-3.621,3.536c-3.076-7.814-8.25-16.323-16.864-20.865
			c-9.319-4.912-20.224-4.112-32.411,2.38c-35.914,19.132-23.275,54.5-13.119,82.919c10.199,28.537,15.312,46.678,0.375,57.973
			c-0.201,0.152-0.391,0.313-0.574,0.481c-2.896-1.331-6.104-2.093-9.493-2.093c-12.593,0-22.838,10.245-22.838,22.838
			c0,12.593,10.245,22.838,22.838,22.838s22.838-10.245,22.838-22.838c0-3.357-0.747-6.536-2.052-9.409
			c23.882-19.201,13.293-48.897,3.91-75.151c-11.263-31.516-17.018-51.443,5.605-63.494c7.23-3.851,13.106-4.646,17.466-2.359
			c7.447,3.905,11.16,16.412,12.38,22.96c-8.025,14.236-12.43,31.47-12.43,49.911c0,20.07,5.393,41.754,15.186,61.06
			c1.404,2.769,4.205,4.365,7.111,4.365c1.212,0,2.443-0.277,3.598-0.864c3.924-1.991,5.492-6.786,3.501-10.709
			c-8.555-16.867-13.462-36.495-13.462-53.852c0-23.652,8.292-44.725,22.749-57.816c10.161-9.201,22.403-13.686,35.567-13.056
			c4.731,4.085,10.894,6.563,18.421,7.383c5.668,8.876,17.505,19.842,34.942,18.518c4.847,5.775,15.354,15.675,33.9,21.646
			l17.074,42.243c0.898,2.221,2.747,3.921,5.036,4.627c0.77,0.238,1.561,0.354,2.35,0.354c1.555,0,3.095-0.456,4.419-1.338
			l29.867-19.912l19.828,18.104c1.89,1.727,4.501,2.439,7.003,1.914c2.506-0.525,4.608-2.222,5.648-4.562l9.393-21.134
			l23.542,11.493c0.786,10.101-1.238,18.999-3.921,26c-7.027,18.327-21.263,31.91-34.884,38.706
			c1.995-18.185-0.796-34.131-1.008-35.295c-0.786-4.325-4.92-7.193-9.254-6.411c-4.326,0.782-7.201,4.925-6.424,9.252
			c0.021,0.11,1.983,11.237,1.328,24.691c-0.57,11.689-3.276,27.65-12.931,37.305c-0.289,0.29-1.765,1.737-2.477,1.528
			c-2.557-0.743-8.842-7.428-16.178-27.779c-5.131-14.232-8.271-28.14-8.301-28.279c-0.961-4.294-5.224-6.994-9.514-6.032
			c-4.292,0.961-6.995,5.22-6.035,9.512c0.135,0.601,3.356,14.898,8.809,30.057c0.893,2.484,1.79,4.831,2.692,7.061
			c-31.46,9.698-57.569,10.811-76.628,9.17c5.465-9.012,6.963-19.951,4.085-30.104l-14.422-50.899
			c-1.199-4.233-5.603-6.695-9.837-5.493c-4.233,1.199-6.692,5.603-5.493,9.836l14.422,50.899c1.7,5.997,0.779,12.467-2.525,17.752
			l-40.732,65.169c-1.534,2.456-1.616,5.551-0.211,8.085c1.403,2.533,4.072,4.104,6.968,4.104c4.152,0,8.043,1.841,10.675,5.052
			c1.352,1.651,2.286,3.556,2.764,5.57h-29.506l-10.808-24.319c-2.564-5.768-2.062-12.387,1.344-17.703l23.743-37.067
			c1.194-1.864,1.559-4.142,1.006-6.286s-1.973-3.961-3.92-5.016c-5.262-2.851-10.474-7.237-15.491-13.036
			c-2.881-3.33-7.912-3.691-11.237-0.814c-3.328,2.879-3.692,7.909-0.815,11.237c4.085,4.723,8.355,8.741,12.755,12.01
			l-19.458,30.379c-6.303,9.841-7.233,22.09-2.487,32.768l12.91,29.05c1.279,2.877,4.132,4.731,7.281,4.731h80.21
			c3.784,0,7.044-2.66,7.804-6.366l0.114-0.557c1.756-8.768-0.487-17.763-6.155-24.678c-2.861-3.492-6.414-6.232-10.381-8.09
			l25.056-40.079c16.266-1.038,35.056-4.156,55.91-10.789c3.687,6.342,7.512,10.823,11.572,13.578l2.616,12.028
			c0.668,7.492-0.132,15.687-4.995,20.55c-3.111,3.111-3.111,8.156,0,11.266c3.112,3.111,8.156,3.111,11.267,0
			c0.18-0.18,0.354-0.359,0.528-0.542l4.111,18.908c0.797,3.662,4.038,6.274,7.785,6.274h24.432c4.401,0,7.967-3.567,7.967-7.967
			s-3.566-7.967-7.967-7.967H323.4l-9.45-43.456c-0.288-2.641-0.702-5.1-1.149-7.295c2.133-0.957,4.374-2.443,6.625-4.694
			c6.246-6.246,10.393-13.998,13.093-22.146c6.824-1.991,13.55-5.244,19.876-9.486c11.902,8.354,21.349,12.559,29.05,12.917
			l11.084,13.04l-13.337,15.444h-16.537c-4.401,0-7.967,3.567-7.967,7.967s3.566,7.967,7.967,7.967h16.879l15.724,15.724
			c1.556,1.555,3.596,2.334,5.634,2.334c2.038,0,4.078-0.778,5.634-2.334c3.111-3.111,3.111-8.156,0-11.266l-12.822-12.822
			l15.342-17.765c2.568-2.973,2.585-7.374,0.041-10.367l-12.439-14.634c1.569-2.092,2.905-4.825,3.713-8.434
			c3.267-14.622-0.549-31.913-11.012-50.169c5.191-22.13,0.103-44.835-14.783-64.925c-24.34-32.839-17.123-81.987-13.989-97.659
			c4.932-0.074,10.197-0.463,15.829-1.206c18.505-2.438,35.073-7.79,39.844-9.421h62.258c0.291,0.281,0.58,0.566,0.867,0.853
			c1.525,1.524,3.563,2.334,5.636,2.334c1.026,0,2.061-0.199,3.047-0.607c2.977-1.233,4.918-4.138,4.918-7.36v-25.494
			C492.975,144.122,492.93,143.639,492.843,143.163z M334.37,40.927l-0.357-12.685l13.94,14.399
			C343.414,41.905,338.878,41.343,334.37,40.927z M41.856,402.588c-3.807,0-6.905-3.097-6.905-6.905s3.097-6.905,6.905-6.905
			s6.905,3.097,6.905,6.905S45.663,402.588,41.856,402.588z M183.742,473.253c-1.535,2.456-1.618,5.551-0.212,8.085
			c1.403,2.534,4.072,4.106,6.968,4.106c4.158,0,8.052,1.842,10.685,5.055c1.352,1.651,2.285,3.556,2.762,5.567h-21.601
			c-0.607-5.685-2.844-11.128-6.568-15.671c-2.86-3.488-6.41-6.227-10.374-8.085l25.76-41.217c5.375,0.713,11.4,1.243,18.028,1.452
			L183.742,473.253z M384.81,394.784c-0.553,2.475-1.205,2.606-1.438,2.652c-0.59,0.119-5.413,0.732-18.12-7.49
			c6.381-6.291,11.957-13.606,16.28-21.549C384.826,376.834,386.742,386.141,384.81,394.784z M419.195,158.947
			c-0.804-1.382-1.5-2.802-2.088-4.249h11.484c8.469,0,16.712,1.455,24.45,4.249H419.195z M477.041,153.319
			c-14.244-9.47-30.957-14.555-48.451-14.555h-12.628c-0.392,0-0.776,0.029-1.155,0.083c0.749-7.559,4.079-14.845,9.818-20.503
			c4.358-0.246,13.939-0.408,23.94,1.894c16.479,3.791,25.8,12.016,28.475,25.133V153.319z"/>
	</g>
</g>
<g>
	<g>
		<path d="M363.714,90.29c-4.401,0-7.967,3.567-7.967,7.967v14.871c0,4.4,3.566,7.967,7.967,7.967s7.967-3.567,7.967-7.967V98.257
			C371.681,93.857,368.115,90.29,363.714,90.29z"/>
	</g>
</g>
<g>
	<g>
		<path d="M392.394,90.29c-4.401,0-7.967,3.567-7.967,7.967v14.871c0,4.4,3.566,7.967,7.967,7.967c4.401,0,7.967-3.567,7.967-7.967
			V98.257C400.361,93.857,396.795,90.29,392.394,90.29z"/>
	</g>
</g>
<g>
	<g>
		<path d="M287.678,116.459c-3.862-2.102-8.702-0.675-10.805,3.19c-14.309,26.301-21.615,57.906-21.826,94.214
			c-13.997-23.874-20.79-50.634-20.185-79.645c0.269-12.857-8.228-24.031-20.662-27.174c-10.65-2.691-21.557-4.874-32.418-6.486
			c-4.347-0.647-8.403,2.357-9.051,6.709c-0.646,4.352,2.358,8.404,6.711,9.05c10.337,1.535,20.718,3.613,30.854,6.175
			c5.198,1.313,8.749,5.998,8.637,11.394c-1.725,82.642,52.061,124.831,54.352,126.586c1.444,1.107,3.144,1.642,4.832,1.642
			c2.388,0,4.749-1.071,6.318-3.11c2.68-3.48,2.031-8.479-1.443-11.167c-0.076-0.06-4.772-3.738-11.172-10.883
			c-3.262-43.52,3.126-80.425,19.048-109.69C292.971,123.399,291.543,118.562,287.678,116.459z"/>
	</g>
</g>
<g>
</g>
<g>
</g>
<g>
</g>
<g>
</g>
<g>
</g>
<g>
</g>
<g>
</g>
<g>
</g>
<g>
</g>
<g>
</g>
<g>
</g>
<g>
</g>
<g>
</g>
<g>
</g>
<g>
</g>
</svg>
