<svg width="450" height="441" viewBox="0 0 450 441" fill="none" xmlns="http://www.w3.org/2000/svg">
<path d="M444.812 223.815C441.383 227.221 436.902 228.924 432.422 228.924C427.904 228.924 423.389 227.194 419.952 223.736L406.055 209.746V273.748C406.055 283.457 398.186 291.326 388.477 291.326C378.767 291.326 370.898 283.457 370.898 273.748V174.36L237.212 39.7909C230.651 34.1707 220.99 34.1501 214.405 39.7429L79.0775 174.803C79.0809 174.974 79.1015 175.139 79.1015 175.311V361.639C79.1015 381.023 94.8738 396.795 114.258 396.795H136.23C145.94 396.795 153.809 404.664 153.809 414.373C153.809 424.082 145.94 431.951 136.23 431.951H114.258C75.4863 431.951 43.9453 400.41 43.9453 361.639V209.866L29.9961 223.788C23.1262 230.647 11.9956 230.637 5.13606 223.764C-1.72353 216.894 -1.7098 205.763 5.16009 198.904L189.984 14.4434C190.221 14.21 190.465 13.9799 190.712 13.7568C210.79 -4.11661 241.013 -4.05138 261.011 13.9044C261.258 14.1276 261.502 14.3576 261.735 14.5945L444.891 198.959C451.734 205.846 451.699 216.976 444.812 223.815V223.815ZM388.477 344.061C378.767 344.061 370.898 351.93 370.898 361.639C370.898 381.023 355.126 396.795 335.742 396.795H313.769C304.06 396.795 296.191 404.664 296.191 414.373C296.191 424.082 304.06 431.951 313.769 431.951H335.742C374.514 431.951 406.055 400.41 406.055 361.639C406.055 351.93 398.186 344.061 388.477 344.061ZM335.742 279.774C335.697 326.843 307.7 357.104 280.625 386.365C267.359 400.702 253.643 415.523 242.88 432.556C239.66 437.65 234.05 440.74 228.021 440.74H221.979C215.95 440.74 210.34 437.65 207.12 432.556C196.357 415.523 182.641 400.702 169.375 386.365C142.3 357.104 114.306 326.843 114.258 279.811C114.33 218.782 164.009 169.158 225 169.158C285.995 169.158 335.67 218.779 335.742 279.774ZM300.586 279.777C300.538 238.183 266.631 204.315 225 204.315C183.369 204.315 149.462 238.183 149.414 279.815C149.445 313.062 169.629 334.873 195.179 362.49C205.204 373.322 215.466 384.415 225 396.857C234.534 384.415 244.796 373.322 254.821 362.49C280.371 334.873 300.555 313.059 300.586 279.777V279.777ZM224.21 231.561C197.555 231.561 175.87 253.245 175.87 279.901C175.87 306.556 197.555 328.24 224.21 328.24C233.919 328.24 241.788 320.371 241.788 310.662C241.788 300.953 233.919 293.084 224.21 293.084C216.942 293.084 211.027 287.169 211.027 279.901C211.027 272.632 216.942 266.717 224.21 266.717C231.478 266.717 237.394 272.632 237.394 279.901C237.394 289.61 245.263 297.479 254.972 297.479C264.681 297.479 272.55 289.61 272.55 279.901C272.55 253.245 250.866 231.561 224.21 231.561Z" fill="#7300B5"/>
</svg>
