<svg width="270" height="420" viewBox="0 0 270 420" fill="none" xmlns="http://www.w3.org/2000/svg">
<path d="M0.0937486 193.219L0 205.969C0.09375 267.469 43.125 319.031 101.344 333.656C102.563 333.75 103.781 334.125 104.906 334.5C110.437 336.375 114.375 340.969 116.25 346.5V401.531C116.25 411.75 124.594 420 135 420H135.094C145.5 420 153.75 411.75 153.75 401.531V346.406C155.625 340.875 159.469 336.375 165 334.5C166.125 334.125 167.344 333.75 168.656 333.656C226.875 319.031 270 267.469 270 205.969V193.219C270 183.469 261.656 175.5 251.719 175.5C241.781 175.5 233.438 183.375 233.438 193.219V205.969C233.438 232.688 222.656 256.688 204.75 274.219C186.75 291.656 162.281 302.531 134.906 302.531C107.531 302.531 83.25 291.75 65.3437 274.219C47.4375 256.688 36.5625 232.594 36.5625 205.969V193.219C36.5625 183.469 28.3125 175.5 18.2812 175.5C8.34375 175.5 0.0937486 183.469 0.0937486 193.219Z" fill="#7300B5"/>
<path d="M62.8125 70.9687V205.781C62.8125 244.969 95.3438 276.75 135.469 276.75C175.594 276.75 208.125 244.969 208.125 205.781V70.9687C208.125 31.7812 175.594 0 135.469 0C95.3438 0 62.8125 31.7812 62.8125 70.9687Z" fill="#7300B5"/>
</svg>
