<svg width="420" height="420" viewBox="0 0 420 420" fill="none" xmlns="http://www.w3.org/2000/svg">
<path d="M416.542 119.963L213.542 0.962289C211.407 -0.283766 208.782 -0.325602 206.619 0.871234L3.61922 112.872C1.38633 114.097 0 116.448 0 118.996V412.996C0 416.867 3.13605 419.996 6.99973 419.996H42C45.8637 419.996 48.9997 416.867 48.9997 412.996V167.997H370.999V412.997C370.999 416.868 374.128 419.997 377.999 419.997H412.999C416.871 419.997 419.999 416.868 419.999 412.997V125.997C420 123.511 418.684 121.215 416.542 119.963ZM406 405.997H385V160.996C385 157.133 381.871 153.997 378 153.997H42C38.1363 153.997 35.0003 157.133 35.0003 160.996V405.997H14.0003V123.127L209.895 15.0462L406 130.007V405.997Z" fill="#794FB5"/>
<path d="M350 322H266C262.129 322 259 325.129 259 329V413C259 416.871 262.129 419.999 266 419.999H350C353.871 419.999 356.999 416.871 356.999 413V329C356.999 325.129 353.871 322 350 322ZM342.999 406H272.999V336H342.999V406V406Z" fill="#794FB5"/>
<path d="M315.001 329V350H301V329H287V357C287 360.871 290.129 363.999 294 363.999H321.999C325.871 363.999 328.999 360.871 328.999 357V329H315.001Z" fill="#794FB5"/>
<path d="M266 322H182C178.136 322 175 325.129 175 329V413C175 416.871 178.136 419.999 182 419.999H266C269.871 419.999 272.999 416.871 272.999 413V329C272.999 325.129 269.871 322 266 322ZM258.999 406H188.999V336H258.999V406Z" fill="#794FB5"/>
<path d="M231.001 329V350H217V329H203V357C203 360.871 206.136 363.999 210 363.999H237.999C241.871 363.999 244.999 360.871 244.999 357V329H231.001Z" fill="#794FB5"/>
<path d="M350 237.996H266C262.129 237.996 259 241.125 259 244.996V328.996C259 332.867 262.129 335.996 266 335.996H350C353.871 335.996 356.999 332.867 356.999 328.996V244.996C356.999 241.125 353.871 237.996 350 237.996ZM342.999 321.996H272.999V251.996H342.999V321.996V321.996Z" fill="#794FB5"/>
<path d="M315.001 244.996V265.996H301V244.996H287V272.996C287 276.867 290.129 279.996 294 279.996H321.999C325.871 279.996 328.999 276.867 328.999 272.996V244.996H315.001Z" fill="#794FB5"/>
<path d="M378 210H42V224H378V210Z" fill="#794FB5"/>
<path d="M378 181.996H42V195.996H378V181.996Z" fill="#794FB5"/>
<path d="M244.999 97.9961H175C171.136 97.9961 168 101.132 168 104.996V132.996C168 136.859 171.136 139.995 175 139.995H244.999C248.871 139.995 251.999 136.859 251.999 132.996V104.996C251.999 101.132 248.871 97.9961 244.999 97.9961ZM237.999 125.997H181.999V111.996H237.999V125.997Z" fill="#794FB5"/>
</svg>
