<svg fill="#7300B5" id="Capa_1" enable-background="new 0 0 512 512" height="512" viewBox="0 0 512 512" width="512" xmlns="http://www.w3.org/2000/svg"><path d="m494.5 45h-40c-9.649 0-17.5 7.851-17.5 17.5v2.2h-20.615c-4.142 0-7.5 3.358-7.5 7.5s3.358 7.5 7.5 7.5h20.615v143.3h-362v-143.3h308.974c4.142 0 7.5-3.358 7.5-7.5s-3.358-7.5-7.5-7.5h-308.974v-2.2c0-9.649-7.851-17.5-17.5-17.5h-40c-9.649 0-17.5 7.851-17.5 17.5v26.077c0 4.142 3.358 7.5 7.5 7.5s7.5-3.358 7.5-7.5v-26.077c0-1.378 1.122-2.5 2.5-2.5h40c1.378 0 2.5 1.122 2.5 2.5v168c0 4.142 3.358 7.5 7.5 7.5h377c4.142 0 7.5-3.358 7.5-7.5v-168c0-1.378 1.122-2.5 2.5-2.5h40c1.378 0 2.5 1.122 2.5 2.5v220.5h-482v-162.115c0-4.142-3.358-7.5-7.5-7.5s-7.5 3.358-7.5 7.5v163.615c0 7.444 6.056 13.5 13.5 13.5h3.778c4.166 37.985 9.444 86.096 13.163 120h-1.441c-4.142 0-7.5 3.358-7.5 7.5v34c0 4.142 3.358 7.5 7.5 7.5h454c4.142 0 7.5-3.358 7.5-7.5v-34c0-4.142-3.358-7.5-7.5-7.5h-1.441c1.539-14.031 11.492-104.772 13.163-120h3.778c7.444 0 13.5-6.056 13.5-13.5v-222c0-9.649-7.851-17.5-17.5-17.5zm-456.773 301.82h169.402c7 17.771 23.426 30.835 43.086 33h-208.872zm182.097-9.294c-.026-.104-.053-.208-.083-.311-.809-3.059-1.24-6.27-1.24-9.579v-29.5h75v29.5c0 3.31-.432 6.52-1.24 9.579-.03.103-.058.206-.083.311-4.35 15.895-18.92 27.61-36.176 27.61s-31.828-11.715-36.178-27.61zm-16.324-39.526v29.637c0 1.408.056 2.803.165 4.183h-167.588l-3.709-33.82zm272 154h-439v-19h439zm-429.97-34-2.543-23.18h372.781c4.142 0 7.5-3.358 7.5-7.5s-3.358-7.5-7.5-7.5h-153.982c19.66-2.165 36.086-15.229 43.086-33h169.402l-3.617 33h-22.58c-4.142 0-7.5 3.358-7.5 7.5s3.358 7.5 7.5 7.5h20.935l-2.542 23.18zm430.393-86.18h-167.588c.109-1.38.165-2.775.165-4.183v-29.637h171.132z"/><path d="m256 301c-12.407 0-22.5 10.093-22.5 22.5 0 9.778 6.27 18.119 15 21.215v8.17c0 4.142 3.358 7.5 7.5 7.5s7.5-3.358 7.5-7.5v-8.17c8.73-3.095 15-11.436 15-21.215 0-12.407-10.093-22.5-22.5-22.5zm0 30c-4.136 0-7.5-3.364-7.5-7.5s3.364-7.5 7.5-7.5 7.5 3.364 7.5 7.5-3.364 7.5-7.5 7.5z"/></svg>