<svg width="512" height="512" viewBox="0 0 512 512" fill="none" xmlns="http://www.w3.org/2000/svg">
<path d="M469.417 200.464C478.63 191.484 481.882 178.305 477.908 166.07C473.932 153.834 463.554 145.085 450.822 143.235L339.499 127.059C337.314 126.742 335.425 125.37 334.447 123.388L284.662 22.5133C278.969 10.9765 267.44 3.81 254.574 3.81C241.709 3.81 230.18 10.9765 224.487 22.5133L174.702 123.389C173.723 125.37 171.835 126.742 169.649 127.06L58.3275 143.235C45.5963 145.085 35.2192 153.834 31.2424 166.07C27.2656 178.305 30.519 191.484 39.7325 200.464L120.286 278.985C121.867 280.527 122.59 282.748 122.216 284.925L103.2 395.798C101.026 408.479 106.139 421.052 116.547 428.614C126.955 436.178 140.497 437.155 151.883 431.17L251.452 378.823C253.408 377.794 255.742 377.794 257.699 378.823L357.269 431.17C362.222 433.773 367.581 435.06 372.914 435.059C379.84 435.059 386.722 432.889 392.602 428.613C403.01 421.05 408.124 408.476 405.949 395.797L386.933 284.924C386.56 282.747 387.282 280.526 388.863 278.984L469.417 200.464ZM360.48 289.464L379.496 400.338C380.132 404.049 377.841 406.164 376.827 406.901C375.811 407.636 373.091 409.163 369.76 407.41L270.189 355.063C265.301 352.495 259.939 351.209 254.576 351.209C249.213 351.209 243.851 352.495 238.964 355.062L139.394 407.408C136.061 409.16 133.342 407.635 132.327 406.899C131.313 406.162 129.021 404.047 129.658 400.336L148.674 289.464C150.541 278.578 146.935 267.476 139.025 259.766L58.4706 181.245C55.7747 178.616 56.3849 175.558 56.7734 174.366C57.16 173.172 58.4647 170.339 62.19 169.799L173.511 153.623C184.44 152.035 193.886 145.174 198.775 135.268L248.56 34.392C250.226 31.0164 253.322 30.6517 254.577 30.6517C255.831 30.6517 258.927 31.0154 260.594 34.392V34.393L310.379 135.269C315.267 145.175 324.712 152.036 335.641 153.624L446.964 169.8C450.689 170.34 451.993 173.173 452.381 174.367C452.768 175.56 453.379 178.619 450.682 181.246L370.128 259.767C362.219 267.476 358.612 278.578 360.48 289.464Z" fill="#7300B5"/>
<path d="M413.783 22.625C407.747 18.241 399.302 19.579 394.918 25.613L380.581 45.345C376.197 51.379 377.534 59.826 383.569 64.21C385.968 65.951 388.745 66.79 391.497 66.79C395.674 66.79 399.792 64.859 402.434 61.223L416.771 41.491C421.155 35.456 419.818 27.009 413.783 22.625Z" fill="#7300B5"/>
<path d="M131.36 45.265L117.023 25.533C112.64 19.501 104.194 18.163 98.1581 22.545C92.1241 26.929 90.7861 35.376 95.1701 41.41L109.507 61.142C112.15 64.781 116.268 66.711 120.446 66.711C123.199 66.711 125.977 65.872 128.373 64.13C134.407 59.747 135.745 51.3 131.36 45.265Z" fill="#7300B5"/>
<path d="M49.552 306.829C47.247 299.736 39.628 295.853 32.533 298.158L9.33604 305.696C2.24104 308.001 -1.63996 315.622 0.665042 322.715C2.51904 328.424 7.81404 332.052 13.507 332.052C14.89 332.052 16.297 331.837 17.684 331.386L40.881 323.848C47.975 321.543 51.857 313.924 49.552 306.829Z" fill="#7300B5"/>
<path d="M256.005 456.786C248.546 456.786 242.499 462.833 242.499 470.292V494.684C242.499 502.143 248.546 508.19 256.005 508.19C263.464 508.19 269.511 502.143 269.511 494.684V470.292C269.511 462.832 263.465 456.786 256.005 456.786Z" fill="#7300B5"/>
<path d="M502.664 305.715L479.467 298.177C472.375 295.874 464.753 299.754 462.448 306.849C460.143 313.944 464.024 321.563 471.119 323.868L494.316 331.406C495.703 331.856 497.109 332.07 498.492 332.07C504.186 332.07 509.481 328.441 511.335 322.733C513.64 315.639 509.758 308.02 502.664 305.715Z" fill="#7300B5"/>
</svg>
