<svg width="420" height="420" viewBox="0 0 420 420" fill="none" xmlns="http://www.w3.org/2000/svg">
<g clip-path="url(#clip0)">
<path d="M298.394 226.352H241.324C225.705 226.352 213.004 239.053 213.004 254.672V298.44C213.004 314.059 225.705 326.76 241.324 326.76H298.394C314.013 326.76 326.715 314.059 326.715 298.44V254.672C326.715 239.053 314.013 226.352 298.394 226.352ZM306.118 298.44C306.118 302.731 302.599 306.164 298.394 306.164H241.324C237.033 306.164 233.601 302.645 233.601 298.44V254.672C233.601 250.381 237.119 246.948 241.324 246.948H298.394C302.685 246.948 306.118 250.467 306.118 254.672V298.44Z" fill="#794FB5"/>
<path d="M420 146.796C420 144.993 419.571 143.277 418.627 141.732L356.15 31.8834C354.348 28.7081 350.915 26.6484 347.225 26.6484H72.689C68.9988 26.6484 65.566 28.6223 63.7638 31.8834L1.37311 141.732C0.514916 143.277 0 144.993 0 146.796C0 171.426 14.8468 192.537 36.0441 201.892V383.056C36.0441 388.72 40.6784 393.355 46.3425 393.355H103.241C103.327 393.355 103.412 393.355 103.498 393.355H183.31C183.396 393.355 183.482 393.355 183.568 393.355H373.572C379.236 393.355 383.87 388.72 383.87 383.056V203.179C383.87 202.75 383.87 202.407 383.784 202.063C405.067 192.709 420 171.512 420 146.796ZM78.6964 47.3309H341.218L390.049 133.236H29.951L78.6964 47.3309ZM298.909 153.747C295.648 172.284 279.428 186.358 259.947 186.358C240.466 186.358 224.246 172.284 220.985 153.747H298.909ZM199.101 153.747C195.84 172.284 179.62 186.358 160.139 186.358C140.658 186.358 124.438 172.284 121.091 153.747H199.101ZM21.2832 153.747H99.293C96.0319 172.284 79.7262 186.358 60.2452 186.358C40.7642 186.444 24.5443 172.284 21.2832 153.747ZM173.012 372.758H113.796V261.622C113.796 253.555 120.319 246.947 128.472 246.947H158.423C166.49 246.947 173.098 253.469 173.098 261.622V372.758H173.012ZM363.273 372.758H193.609V261.622C193.609 242.227 177.818 226.35 158.337 226.35H128.386C108.991 226.35 93.114 242.141 93.114 261.622V372.844H56.6408V206.955C57.8423 207.041 59.0437 207.041 60.2452 207.041C81.0135 207.041 99.3788 196.485 110.192 180.437C121.005 196.485 139.371 207.041 160.139 207.041C180.907 207.041 199.187 196.485 210.086 180.437C220.899 196.485 239.264 207.041 259.947 207.041C280.715 207.041 298.995 196.485 309.808 180.437C320.621 196.485 338.987 207.041 359.755 207.041C360.956 207.041 362.072 206.955 363.273 206.955V372.758ZM359.755 186.444C340.274 186.444 324.054 172.37 320.793 153.833H398.803C395.456 172.284 379.236 186.444 359.755 186.444Z" fill="#794FB5"/>
</g>
<defs>
<clipPath id="clip0">
<rect width="420" height="420" fill="white"/>
</clipPath>
</defs>
</svg>
