<svg width="420" height="420" viewBox="0 0 420 420" fill="none" xmlns="http://www.w3.org/2000/svg">
<g clip-path="url(#clip0)">
<path d="M242.813 230.816C238.284 230.816 234.609 234.491 234.609 239.02C234.609 243.548 238.284 247.223 242.813 247.223C247.341 247.223 251.016 243.548 251.016 239.02C251.016 234.491 247.341 230.816 242.813 230.816Z" fill="#794FB5"/>
<path d="M316.003 274.981C308.313 267.296 289.665 246.494 274.953 212.76C264.014 186.511 238.575 169.555 210.125 169.555C181.682 169.555 156.247 186.514 145.305 212.768C126.848 255.101 101.633 277.504 101.391 277.716C101.362 277.741 101.333 277.767 101.304 277.793C86.432 291.109 77.9023 310.184 77.9023 330.128C77.9023 354.508 89.5123 375.711 109.653 389.145C128.418 401.665 151.676 405.419 173.46 399.446C184.377 396.455 197.012 394.874 210.002 394.874C223.212 394.874 236.034 396.508 247.083 399.599C268.227 405.517 291.434 402.272 310.593 389.614C330.964 376.153 342.775 354.75 342.775 330.128C342.775 308.472 333.025 288.403 316.003 274.981ZM301.546 375.925C286.762 385.694 268.522 388.563 251.503 383.799C239.033 380.311 224.683 378.467 210 378.467C195.566 378.467 181.431 380.251 169.12 383.624C151.922 388.34 133.565 385.378 118.755 375.498C103.292 365.182 94.3062 349.056 94.3062 330.127C94.3062 314.858 100.833 300.25 112.213 290.044C113.963 288.509 140.584 264.676 160.37 219.259C160.388 219.217 160.407 219.174 160.424 219.131C168.798 198.981 188.305 185.961 210.122 185.961C231.947 185.96 251.459 198.978 259.83 219.123C259.847 219.166 259.866 219.208 259.884 219.251C275.951 256.124 296.637 278.888 304.785 286.965C305.019 287.196 305.267 287.414 305.526 287.616C318.771 297.907 326.366 313.402 326.366 330.127C326.368 349.213 317.236 365.559 301.546 375.925Z" fill="#794FB5"/>
<path d="M265.161 263.47C262.688 259.675 257.607 258.599 253.81 261.072C250.013 263.546 248.94 268.628 251.412 272.424C263.895 291.589 275.73 304.353 281.676 310.256C284.89 313.447 290.084 313.43 293.278 310.214C296.47 306.999 296.451 301.805 293.236 298.612C287.753 293.169 276.815 281.365 265.161 263.47Z" fill="#794FB5"/>
<path d="M183.413 129.563C191.295 115.786 194.581 97.4869 192.429 79.3638C188.265 44.0796 163.93 14.5212 136.743 17.7861C124.466 19.2388 113.551 27.2976 106.003 40.4776C98.1256 54.2441 94.8394 72.5428 96.987 90.6792C103.788 148.302 157.431 174.948 183.413 129.563ZM120.242 48.6274C124.732 40.7827 131.737 33.961 140.766 33.961C156.911 33.961 173.109 55.6329 176.137 81.2923C177.885 96.003 175.347 110.627 169.175 121.414C150.269 154.443 117.747 126.597 113.279 88.7531C111.536 74.0309 114.075 59.4055 120.242 48.6274Z" fill="#794FB5"/>
<path d="M104.838 217.79C107.213 203.17 104.327 187.001 96.7132 172.26C89.0958 157.517 77.5769 145.805 64.2772 139.282C50.1522 132.354 35.6867 131.996 23.5461 138.274C11.4054 144.547 3.33191 156.551 0.810269 172.077C-1.56454 186.698 1.32133 202.866 8.93548 217.608C16.5537 232.348 28.0726 244.057 41.3723 250.58C54.5712 257.054 69.1941 258.264 82.1009 251.595C94.2432 245.323 102.318 233.316 104.838 217.79ZM74.5713 237.019C67.1638 240.849 57.9402 240.433 48.5977 235.85C38.434 230.865 29.5254 221.711 23.5116 210.076C17.5012 198.44 15.1896 185.88 17.0041 174.707C18.6718 164.438 23.6708 156.677 31.079 152.849C31.0799 152.849 31.0807 152.849 31.0815 152.848C39.2732 148.612 48.7609 149.945 57.0527 154.012C67.2155 158.997 76.1241 168.152 82.1379 179.791C88.1483 191.427 90.4599 203.989 88.6454 215.161C86.9785 225.43 81.9795 233.192 74.5713 237.019Z" fill="#794FB5"/>
<path d="M271.523 152.649C296.391 152.649 319.091 125.499 323.202 90.8362C327.57 53.9106 308.966 17.7109 279.414 17.7109C254.542 17.7109 231.844 44.8625 227.743 79.5241C223.37 116.517 242.03 152.649 271.523 152.649ZM244.036 81.451C247.073 55.7932 263.274 34.1164 279.415 34.1164C280.175 34.1164 280.83 34.1533 281.416 34.2296C290.163 35.2017 296.934 42.8462 300.922 50.6515C306.348 61.2672 308.53 75.2109 306.911 88.906C303.758 115.487 286.139 138.286 269.523 136.13C269.493 136.127 269.462 136.122 269.432 136.118C261.973 135.241 254.898 129.261 250.022 119.712C244.598 109.096 242.417 95.1502 244.036 81.451Z" fill="#794FB5"/>
<path d="M419.192 172.113C414.005 140.165 385.125 124.892 355.726 139.318C328.221 152.811 310.25 187.567 315.164 217.827C320.414 250.153 349.581 264.867 378.63 250.617C406.143 237.122 424.106 202.369 419.192 172.113ZM371.405 235.886C362.063 240.468 352.84 240.882 345.431 237.055V237.056C338.023 233.228 333.024 225.464 331.357 215.197C327.607 192.101 341.889 164.381 362.951 154.046C382.253 144.577 399.548 153.492 402.999 174.742C406.743 197.796 392.506 225.537 371.405 235.886Z" fill="#794FB5"/>
</g>
<defs>
<clipPath id="clip0">
<rect width="420" height="420" fill="white"/>
</clipPath>
</defs>
</svg>
