<svg width="450" height="360" viewBox="0 0 450 360" fill="none" xmlns="http://www.w3.org/2000/svg">
<path d="M450 236.643C450 193.414 414.829 158.243 371.6 158.243C366.973 158.243 362.38 158.645 357.865 159.445C356.962 144.975 353.005 130.763 346.285 117.993C344.334 114.287 339.75 112.863 336.042 114.814C332.336 116.765 330.913 121.35 332.863 125.057C339.427 137.53 342.896 151.628 342.896 165.828C342.896 166.59 342.87 167.348 342.844 168.103L342.821 168.823C342.745 171.276 343.862 173.616 345.816 175.099C347.772 176.583 350.322 177.03 352.669 176.295C358.772 174.382 365.141 173.412 371.6 173.412C406.467 173.412 434.834 201.779 434.834 236.646C434.834 249.232 431.109 261.403 424.209 271.732C423.945 271.446 423.666 271.176 423.396 270.897C423.096 270.585 422.798 270.273 422.491 269.968C422.287 269.768 422.078 269.575 421.872 269.378C421.393 268.92 420.909 268.469 420.414 268.029C420.337 267.96 420.257 267.893 420.18 267.825C410.946 259.725 398.862 254.799 385.642 254.799C382.882 254.799 380.13 255.016 377.414 255.444C369.231 246.191 357.423 240.795 344.928 240.795C342.898 240.795 340.879 240.936 338.879 241.218C334.767 229.505 327.411 219.01 317.68 211.134C305.776 201.497 290.771 196.19 275.43 196.19C240.804 196.19 212.209 222.501 208.59 256.182C206.596 255.952 204.582 255.835 202.56 255.835C201.708 255.835 200.863 255.859 200.022 255.899C199.7 255.914 199.383 255.945 199.062 255.966C198.552 256 198.04 256.033 197.535 256.083C197.127 256.121 196.725 256.175 196.32 256.223C195.913 256.272 195.507 256.32 195.103 256.379C194.641 256.447 194.182 256.524 193.724 256.604C193.395 256.661 193.066 256.716 192.739 256.78C192.225 256.879 191.716 256.988 191.208 257.102C190.956 257.159 190.705 257.216 190.456 257.276C189.886 257.412 189.32 257.558 188.757 257.714C188.597 257.759 188.438 257.804 188.278 257.849C187.638 258.033 187.001 258.226 186.371 258.434C186.333 258.447 186.294 258.46 186.254 258.473C170.201 263.798 157.604 276.752 152.778 293.026C152.77 293.05 152.764 293.076 152.757 293.1C152.543 293.822 152.343 294.549 152.162 295.284C152.161 295.286 152.161 295.291 152.16 295.293C151.787 296.799 151.471 298.326 151.233 299.88H79.2281C43.9049 299.88 15.1673 271.142 15.1673 235.818C15.1673 200.494 43.9049 171.757 79.2281 171.757C84.6721 171.757 90.0958 172.445 95.3499 173.803C98.4234 174.593 101.672 173.391 103.481 170.779C112.755 157.389 127.994 149.395 144.245 149.395C149.587 149.395 154.87 150.254 159.95 151.949C161.981 152.627 164.206 152.416 166.074 151.361C167.941 150.31 169.274 148.516 169.747 146.427C171.48 138.759 174.166 131.538 177.657 124.862C177.872 124.575 178.07 124.272 178.245 123.953C189.501 103.301 208.88 87.8116 231.414 81.458C231.682 81.3824 231.944 81.291 232.199 81.1882C239.556 79.2159 247.279 78.1613 255.232 78.1613C279.768 78.1613 302.515 88.0384 319.283 105.973C322.143 109.032 326.942 109.195 330.002 106.334C333.062 103.473 333.222 98.6741 330.362 95.6146C310.98 74.8847 283.596 62.9948 255.232 62.9948C247.845 62.9948 240.51 63.8026 233.358 65.3635C225.975 53.3374 212.876 45.8553 198.426 45.8553C197.45 45.8553 196.475 45.8896 195.506 45.9572C191.863 20.505 169.919 0.879028 143.476 0.879028C121.264 0.879028 102.003 14.4502 94.3611 34.6721C93.2695 34.5684 92.1683 34.5156 91.0652 34.5156C81.4482 34.5156 72.3428 38.5243 65.8538 45.4378C64.0327 45.1952 62.1976 45.0731 60.3606 45.0731C37.524 45.0731 18.9466 63.6523 18.9466 86.4889C18.9466 109.326 37.5249 127.905 60.3606 127.905H114.45C118.638 127.905 122.033 124.509 122.033 120.322C122.033 116.134 118.638 112.738 114.45 112.738H60.3624C45.8895 112.738 34.1147 100.963 34.1147 86.4889C34.1147 72.0142 45.8903 60.2395 60.3624 60.2395C62.5913 60.2395 64.8158 60.5216 66.9779 61.0806C70.0532 61.8725 73.2973 60.6657 75.1043 58.0554C78.7368 52.8127 84.7037 49.6821 91.0652 49.6821C93.1605 49.6821 95.2304 50.0178 97.2167 50.6805C99.2487 51.3599 101.474 51.1437 103.339 50.0925C105.207 49.0405 106.54 47.2466 107.012 45.1574C110.884 28.017 125.877 16.0454 143.475 16.0454C164.094 16.0454 180.868 32.8194 180.868 53.4367C180.868 53.7584 180.855 54.0766 180.845 54.3947L180.833 54.7164C180.752 57.1712 181.868 59.5153 183.823 61.0015C185.779 62.4877 188.334 62.9351 190.679 62.2029C193.181 61.419 195.788 61.0217 198.425 61.0217C206.107 61.0217 213.186 64.3756 218.007 69.9751C217.743 70.0788 217.485 70.1949 217.223 70.3003C216.742 70.491 216.268 70.6958 215.79 70.8936C215.043 71.2056 214.296 71.5167 213.558 71.8454C212.675 72.2357 211.803 72.6488 210.93 73.0636C210.631 73.2077 210.328 73.3457 210.03 73.4934C203.142 76.8605 196.61 80.9861 190.604 85.849C182.467 92.4365 175.424 100.226 169.675 108.857C169.443 109.203 169.221 109.555 168.994 109.903C168.513 110.645 168.037 111.39 167.574 112.145C167.451 112.345 167.318 112.54 167.197 112.74H139.096C134.908 112.74 131.513 116.135 131.513 120.323C131.513 124.511 134.908 127.906 139.096 127.906H159.667C158.675 130.397 157.773 132.926 156.98 135.491C152.793 134.649 148.533 134.226 144.243 134.226C124.753 134.226 106.382 143.023 94.1353 157.992C89.2283 157.06 84.2353 156.588 79.2264 156.588C35.5421 156.584 0 192.127 0 235.812C0 279.499 35.5421 315.042 79.2281 315.042H151.153C154.704 340.238 176.396 359.688 202.557 359.688H335.325C339.513 359.688 342.908 356.293 342.908 352.105C342.908 347.917 339.513 344.522 335.325 344.522H202.557C182.289 344.522 165.8 328.032 165.8 307.764C165.8 307.549 165.812 307.336 165.815 307.122C165.824 306.64 165.836 306.158 165.862 305.681C165.869 305.57 165.88 305.46 165.887 305.349C165.922 304.831 165.96 304.315 166.016 303.804C166.021 303.755 166.029 303.706 166.035 303.657C168.093 285.331 183.731 271.001 202.558 271.001C206.316 271.001 210.02 271.565 213.568 272.677C215.915 273.414 218.471 272.965 220.425 271.478C222.382 269.99 223.495 267.647 223.415 265.19L223.4 264.775C223.385 264.324 223.367 263.873 223.367 263.418C223.367 234.711 246.721 211.356 275.427 211.356C299.535 211.356 320.885 228.403 326.193 251.893C326.666 253.983 328 255.776 329.867 256.828C331.735 257.88 333.96 258.094 335.991 257.415C338.879 256.45 341.886 255.962 344.926 255.962C354.174 255.962 362.845 260.512 368.122 268.132C369.933 270.746 373.177 271.953 376.257 271.157C379.31 270.367 382.468 269.965 385.64 269.965C386.38 269.965 387.112 269.993 387.844 270.035C388.117 270.051 388.388 270.076 388.658 270.098C389.095 270.132 389.53 270.174 389.964 270.223C390.318 270.264 390.672 270.308 391.024 270.358C391.314 270.399 391.601 270.45 391.889 270.498C401.493 272.127 409.86 277.43 415.477 284.919C415.499 284.947 415.521 284.977 415.542 285.005C420.174 291.218 422.92 298.914 422.92 307.242C422.92 327.798 406.195 344.521 385.639 344.521H359.966C355.778 344.521 352.383 347.916 352.383 352.104C352.383 356.292 355.778 359.687 359.966 359.687H385.639C414.559 359.687 438.086 336.161 438.086 307.241C438.086 299.343 436.321 291.852 433.18 285.128C444.051 271.34 450 254.327 450 236.643Z" fill="#7300B5"/>
</svg>
