<svg width="424" height="444" viewBox="0 0 424 444" fill="none" xmlns="http://www.w3.org/2000/svg">
<path d="M282.22 248.963C320.659 225.312 346.423 183.013 346.423 134.713C346.423 60.6869 286.116 0.461548 212 0.461548C137.883 0.461548 77.5768 60.6869 77.5768 134.713C77.5768 183.013 103.341 225.312 141.78 248.963C58.7806 267.557 0.539551 318.348 0.539551 379.816C0.539551 430.116 133.466 443.538 212 443.538C290.534 443.538 423.46 430.116 423.46 379.816C423.46 318.348 365.219 267.557 282.22 248.963ZM105.269 134.713C105.269 75.9573 153.154 28.1539 212 28.1539C270.846 28.1539 318.731 75.9573 318.731 134.713C318.731 193.469 270.846 241.264 212 241.264C153.154 241.264 105.269 193.469 105.269 134.713ZM212 415.846C99.1078 415.846 31.5311 392.031 28.2397 379.722C28.3254 318.638 110.731 268.956 212 268.956C313.259 268.956 395.657 318.629 395.759 379.704C392.55 392.004 324.966 415.846 212 415.846Z" fill="#7300B5"/>
</svg>
