<svg width="462" height="414" viewBox="0 0 462 414" fill="none" xmlns="http://www.w3.org/2000/svg">
<path d="M404.625 355.875L345.375 283.312C373.125 237.75 379.875 182.438 363.75 130.688C362.25 125.813 357 123.187 352.125 124.687C347.25 126.187 344.437 131.438 346.125 136.313C361.312 184.688 354.187 236.437 326.437 278.625L325.875 279.375C324 282.75 324.187 286.875 326.625 289.875L390.187 367.5C390.187 367.5 391.125 368.625 391.312 368.625C396.562 374.625 396.563 383.062 391.5 389.25C391.313 389.437 391.312 389.625 391.125 389.625L389.812 390.937C383.812 396 375 396 368.812 390.562C368.437 390.187 368.25 390 367.875 389.625L290.25 326.25C287.063 323.625 282.562 323.437 279.187 325.687L278.438 326.25C213 369 125.438 360.375 69.5625 305.625C69.1875 305.062 69 304.5 68.625 304.125C3.37501 239.25 3.375 133.312 68.4375 68.25C133.5 3.1875 239.437 3.1875 304.5 68.25C304.875 68.625 305.437 69 306 69.1875C306.187 69.375 306.562 69.75 306.75 69.9375C309.937 73.875 315.937 74.4375 319.875 71.0625C323.812 67.875 324.375 61.875 321 57.9375C320.25 57 319.125 55.875 318 54.75C245.812 -17.25 128.25 -17.8125 55.5 54.1875C55.3125 54.375 54.9375 54.5625 54.75 54.9375C24.75 84.9375 6 124.875 1.6875 167.062C-0.1875 185.437 0.75 203.813 4.125 221.625C11.25 258.187 28.875 291.375 55.3125 317.812C115.875 378.187 210.938 389.25 283.688 345L355.687 403.875C356.062 404.25 356.625 404.812 357 405.187C363.562 410.812 371.438 413.437 379.313 413.437C387.375 413.437 395.437 410.625 402 405L405.187 402C405.75 401.437 406.125 400.875 406.5 400.125C416.438 387.187 416.062 369.187 405.375 356.625C405.187 356.437 404.813 356.062 404.625 355.875Z" fill="#7300B5"/>
<path d="M459.375 6.18749C457.5 3.56249 454.312 2.06249 450.937 2.43749L390.75 8.81249C387.375 9.18749 384.562 11.25 383.25 14.25C381.937 17.25 382.312 20.8125 384.187 23.4375L397.5 41.625L186 194.062C183.75 195.562 182.437 198.187 182.25 200.812L176.625 273L85.125 183.562C83.25 181.687 80.625 180.75 78 180.937L51.1875 182.812C46.125 183.187 42.1875 187.5 42.5625 192.75C42.9375 197.812 47.4375 201.75 52.5 201.375L75.1875 199.875L177.937 300.187C179.625 301.875 182.062 302.813 184.5 302.813C185.625 302.813 186.75 302.625 187.687 302.25C191.062 300.938 193.312 297.938 193.687 294.375L200.625 206.812L408.937 57L420.375 72.75C422.062 75.1875 424.875 76.5 427.875 76.5C428.25 76.5 428.625 76.5 428.812 76.5C432.187 76.125 435 74.0625 436.312 71.0625L460.687 15.75C461.812 12.375 461.437 8.99999 459.375 6.18749ZM425.625 48.5625L408.937 25.6875L437.062 22.6875L425.625 48.5625Z" fill="#7300B5"/>
</svg>
