<svg fill="#7300B5" id="Layer_5" enable-background="new 0 0 64 64" height="512" viewBox="0 0 64 64" width="512" xmlns="http://www.w3.org/2000/svg"><path d="m58 29h-12.586l5.618-5.618c.533.395 1.171.618 1.847.618 1.684 0 3.051-1.342 3.11-3.011 1.669-.059 3.011-1.427 3.011-3.11 0-.676-.223-1.314-.618-1.847l2.461-2.461c1.391-1.391 2.157-3.24 2.157-5.207 0-4.061-3.303-7.364-7.364-7.364-1.967 0-3.816.766-5.207 2.157l-2.461 2.461c-.533-.395-1.171-.618-1.847-.618-1.684 0-3.051 1.342-3.11 3.011-1.669.059-3.011 1.427-3.011 3.11 0 .676.223 1.314.618 1.847l-15.531 15.531-.111.501h-18.976c-2.757 0-5 2.243-5 5v24c0 2.757 2.243 5 5 5h52c2.757 0 5-2.243 5-5v-24c0-2.757-2.243-5-5-5zm3 5v23h-10v-26h7c1.654 0 3 1.346 3 3zm-15.914-16.5-14.586 14.586-3.086-3.086 14.586-14.586zm-12.081 19.919-7.096 1.577c-.479-.044-.861-.426-.905-.905l1.577-7.096zm-7.005 3.581h.11l9.391-2.087 3.913-3.913h5.586v18h-34v-18h12.642l-.618 2.783-.024.217c0 1.654 1.346 3 3 3zm9-4.414-3.086-3.086 14.586-14.586 3.086 3.086zm16.843-32.015c1.013-1.013 2.36-1.571 3.793-1.571 2.958 0 5.364 2.406 5.364 5.364 0 1.433-.558 2.78-1.571 3.793l-2.429 2.429-7.586-7.586zm-5.722 2.429c.3 0 .581.117.793.328l9.758 9.758c.211.212.328.493.328.793 0 .618-.503 1.121-1.121 1.121-.3 0-.581-.117-.793-.328l-9.758-9.758c-.211-.212-.328-.493-.328-.793 0-.618.503-1.121 1.121-1.121zm-3 3c.3 0 .581.117.793.328l9.758 9.758c.211.212.328.493.328.793 0 .618-.503 1.121-1.121 1.121-.3 0-.581-.117-.793-.328l-9.758-9.758c-.211-.212-.328-.493-.328-.793 0-.618.503-1.121 1.121-1.121zm-37.121 21h18.531l-.444 2h-15.087v22h38v-22h-5.586l2-2h5.586v26h-46v-6h1c1.654 0 3-1.346 3-3v-8c0-1.654-1.346-3-3-3h-1v-3c0-1.654 1.346-3 3-3zm-3 18v-10h1c.551 0 1 .448 1 1v8c0 .552-.449 1-1 1zm55 12h-52c-1.302 0-2.402-.839-2.816-2h57.631c-.413 1.161-1.513 2-2.815 2z"/><path d="m55 49h2c1.103 0 2-.897 2-2v-6c0-1.103-.897-2-2-2h-2c-1.103 0-2 .897-2 2v6c0 1.103.897 2 2 2zm0-8h2l.001 6h-2.001z"/><path d="m13 51h8v-14h-8zm2-12h4v10h-4z"/><path d="m23 45h2v2h-2z"/><path d="m27 45h2v2h-2z"/><path d="m31 45h12v2h-12z"/><path d="m23 49h20v2h-20z"/><path d="m41 41h2v2h-2z"/><path d="m37 41h2v2h-2z"/><path d="m33 41h2v2h-2z"/></svg>