<svg width="400" height="400" viewBox="0 0 400 400" fill="none" xmlns="http://www.w3.org/2000/svg">
<g clip-path="url(#clip0)">
<path d="M141.935 32.258C141.935 35.8209 139.047 38.7096 135.484 38.7096C131.921 38.7096 129.032 35.8209 129.032 32.258C129.032 28.6951 131.921 25.8064 135.484 25.8064C139.047 25.8064 141.935 28.6951 141.935 32.258Z" fill="#7300B5"/>
<path d="M83.871 51.6129H96.7742V64.5161H83.871V51.6129Z" fill="#7300B5"/>
<path d="M174.194 51.6129H187.097V64.5161H174.194V51.6129Z" fill="#7300B5"/>
<path d="M270.968 206.452V58.0645C270.968 47.3948 262.283 38.7097 251.613 38.7097H208.263L205.037 25.8065H173.541C170.549 11.1045 157.516 0 141.935 0H129.032C113.451 0 100.419 11.1045 97.4263 25.8065H65.9306L62.7048 38.7097H19.3548C8.68511 38.7097 0 47.3948 0 58.0645V354.839C0 365.508 8.68511 374.194 19.3548 374.194H206.452V400H400V206.452H270.968ZM387.097 245.161H335.484V219.355H387.097V245.161ZM283.871 258.065H322.581V283.871H283.871V258.065ZM283.871 245.161V219.355H322.581V245.161H283.871ZM206.452 335.484H90.3226V283.871H38.7097V77.4194H53.0273L49.8015 90.3226H221.166L217.94 77.4194H232.258V206.452H206.452V335.484ZM77.4194 326.361L47.8327 296.774H77.4194V326.361ZM219.355 219.355H270.968V245.161H219.355V219.355ZM251.613 51.6129C255.173 51.6129 258.065 54.5111 258.065 58.0645V206.452H245.161V64.5161H214.715L211.489 51.6129H251.613ZM109.677 38.7097V32.2581C109.677 21.5883 118.363 12.9032 129.032 12.9032H141.935C152.605 12.9032 161.29 21.5883 161.29 32.2581V38.7097H194.963L204.64 77.4194H66.3275L76.0049 38.7097H109.677ZM19.3548 361.29C15.7951 361.29 12.9032 358.392 12.9032 354.839V58.0645C12.9032 54.5111 15.7951 51.6129 19.3548 51.6129H59.479L56.2532 64.5161H25.8065V292.994L81.1996 348.387H206.452V361.29H19.3548ZM322.581 387.097H283.871V361.29H322.581V387.097ZM335.484 387.097V348.387H270.968V387.097H219.355V258.065H270.968V296.774H335.484V258.065H387.097V387.097H335.484Z" fill="#7300B5"/>
<path d="M116.129 116.129H115.672L121.601 106.644L110.663 99.8079L100.457 116.129H51.6129V180.645H116.129V116.129ZM64.5161 167.742V129.032H92.3923L82.696 144.541L75.5292 137.374L66.4063 146.497L85.046 165.137L103.226 136.038V167.742H64.5161Z" fill="#7300B5"/>
<path d="M116.129 206.452H115.672L121.601 196.966L110.663 190.13L100.457 206.452H51.6129V270.968H116.129V206.452ZM64.5161 258.064V219.355H92.3923L82.696 234.863L75.5292 227.697L66.4063 236.82L85.046 255.459L103.226 226.361V258.064H64.5161Z" fill="#7300B5"/>
<path d="M129.032 116.129H219.355V129.032H129.032V116.129Z" fill="#7300B5"/>
<path d="M129.032 141.936H219.355V154.839H129.032V141.936Z" fill="#7300B5"/>
<path d="M129.032 167.742H219.355V180.645H129.032V167.742Z" fill="#7300B5"/>
<path d="M129.032 206.452H193.548V219.355H129.032V206.452Z" fill="#7300B5"/>
<path d="M129.032 232.258H193.548V245.161H129.032V232.258Z" fill="#7300B5"/>
<path d="M129.032 258.065H193.548V270.968H129.032V258.065Z" fill="#7300B5"/>
<path d="M103.226 322.581H193.548V283.871H103.226V322.581ZM116.129 296.774H180.645V309.677H116.129V296.774Z" fill="#7300B5"/>
</g>
<defs>
<clipPath id="clip0">
<rect width="400" height="400" fill="white"/>
</clipPath>
</defs>
</svg>
