<svg width="480" height="480" viewBox="0 0 480 480" fill="none" xmlns="http://www.w3.org/2000/svg">
<path d="M380 340H240C217.94 340 200 357.94 200 380C200 402.06 217.94 420 240 420H380C402.06 420 420 402.06 420 380C420 357.94 402.06 340 380 340Z" fill="#7300B5"/>
<path d="M380 200H240C217.94 200 200 217.94 200 240C200 262.06 217.94 280 240 280H380C402.06 280 420 262.06 420 240C420 217.94 402.06 200 380 200Z" fill="#7300B5"/>
<path d="M380 60H240C217.94 60 200 77.94 200 100C200 122.06 217.94 140 240 140H380C402.06 140 420 122.06 420 100C420 77.94 402.06 60 380 60Z" fill="#7300B5"/>
<path d="M100 430C127.614 430 150 407.614 150 380C150 352.386 127.614 330 100 330C72.3858 330 50 352.386 50 380C50 407.614 72.3858 430 100 430Z" fill="#7300B5"/>
<path d="M100 290C127.614 290 150 267.614 150 240C150 212.386 127.614 190 100 190C72.3858 190 50 212.386 50 240C50 267.614 72.3858 290 100 290Z" fill="#7300B5"/>
<path d="M100 150C127.614 150 150 127.614 150 100C150 72.3858 127.614 50 100 50C72.3858 50 50 72.3858 50 100C50 127.614 72.3858 150 100 150Z" fill="#7300B5"/>
</svg>
