<svg height="480pt" viewBox="0 0 480.032 480" width="480pt" xmlns="http://www.w3.org/2000/svg"><path d="m472 96.015625h-24v16h16v232.457031l-35.351562-25.257812-9.296876 13.023437 44.648438 31.898438v19.878906h-72c-4.417969 0-8 3.582031-8 8v72h-344c-13.253906 0-24-10.746094-24-24s10.746094-24 24-24h16c4.417969 0 8-3.582031 8-8v-52.34375l112-97.097656 106.800781 91.515625c3.035157 2.597656 7.519531 2.5625 10.511719-.089844l54-48-10.625-12-48.800781 43.367188-106.6875-91.421876c-2.992188-2.5625-7.40625-2.5625-10.398438 0l-106.800781 92.550782v-222.480469h272v-16h-272v-40c0-4.417969-3.582031-8-8-8h-16c-22.082031.027344-39.9726562 17.921875-40 40v352c.0273438 22.082031 17.917969 39.972656 40 40h352c2.121094-.003906 4.152344-.847656 5.65625-2.34375l80-80c.667969-.679687 1.210938-1.472656 1.601562-2.34375.109376-.25.175782-.488281.261719-.742187.230469-.671876.371094-1.375.417969-2.082032 0-.167968.09375-.320312.09375-.488281v-288c0-2.125-.847656-4.167969-2.355469-5.667969-1.503906-1.5-3.546875-2.339844-5.675781-2.332031zm-456 8v-16c0-13.253906 10.746094-24 24-24h8v336h-8c-8.65625-.011719-17.082031 2.796875-24 8zm384 348.6875v-52.6875h52.6875zm0 0"/><path d="m224 200.015625c0 26.511719 21.492188 48 48 48s48-21.488281 48-48c0-26.507813-21.492188-48-48-48-26.5.027344-47.972656 21.5-48 48zm80 0c0 17.671875-14.328125 32-32 32s-32-14.328125-32-32 14.328125-32 32-32 32 14.328125 32 32zm0 0"/><path d="m114.882812 337.863281 47.996094-39.996093 10.246094 12.289062-48 40zm0 0"/><path d="m322.34375 354.359375 24-24.003906 11.3125 11.3125-24 24.003906zm0 0"/><path d="m400 352.015625v-21.601563l30.65625-45.980468c.871094-1.3125 1.335938-2.847656 1.34375-4.417969v-240c0-22.089844-17.910156-40-40-40s-40 17.910156-40 40v240c.003906 1.582031.46875 3.125 1.34375 4.441406l30.65625 45.957031v21.601563zm16-80h-16v-176h16zm-48-232c0-13.253906 10.746094-24 24-24s24 10.746094 24 24v8h-48zm0 24h48v16h-48zm0 32h16v176h-16zm6.945312 192h34.109376l-17.054688 25.601563zm0 0"/></svg>