<svg width="400" height="369" viewBox="0 0 400 369" fill="none" xmlns="http://www.w3.org/2000/svg">
<path d="M393.801 84.0675C400.207 93.1948 401.648 103.523 398.125 115.052L332.072 332.667C329.029 342.915 322.905 351.522 313.697 358.488C304.49 365.453 294.682 368.936 284.274 368.936H62.5755C50.2456 368.936 38.356 364.653 26.9068 356.086C15.4576 347.519 7.49123 336.991 3.00763 324.501C-0.835454 313.772 -0.995582 303.604 2.52725 293.996C2.52725 293.356 2.76744 291.194 3.24783 287.511C3.72821 283.828 4.04847 280.866 4.2086 278.624C4.36873 277.343 4.12853 275.621 3.48802 273.46C2.8475 271.298 2.60731 269.737 2.76744 268.776C3.0877 267.014 3.72821 265.333 4.68898 263.732C5.64975 262.131 6.97082 260.249 8.65217 258.087C10.3335 255.926 11.6546 254.044 12.6153 252.443C16.2983 246.358 19.9012 239.032 23.424 230.465C26.9469 221.898 29.3488 214.572 30.6298 208.487C31.1102 206.886 31.1502 204.484 30.7499 201.282C30.3496 198.079 30.3096 195.837 30.6298 194.556C31.1102 192.795 32.4713 190.553 34.7131 187.831C36.9549 185.109 38.316 183.267 38.7964 182.306C42.1591 176.542 45.5218 169.176 48.8845 160.209C52.2472 151.241 54.2488 144.036 54.8893 138.591C55.0494 137.15 54.8493 134.588 54.2888 130.905C53.7284 127.222 53.7684 124.98 54.4089 124.18C55.0494 122.098 56.8108 119.656 59.6932 116.854C62.5755 114.052 64.3369 112.25 64.9774 111.45C68.0198 107.286 71.4226 100.521 75.1856 91.1532C78.9486 81.7857 81.1504 74.0595 81.7909 67.9746C81.951 66.6936 81.7108 64.6519 81.0703 61.8497C80.4298 59.0474 80.2697 56.9257 80.5899 55.4846C80.9102 54.2035 81.6308 52.7624 82.7517 51.1611C83.8726 49.5598 85.3137 47.7183 87.0751 45.6366C88.8366 43.555 90.1976 41.8736 91.1584 40.5926C92.4394 38.6711 93.7605 36.2291 95.1216 33.2667C96.4827 30.3043 97.6837 27.5021 98.7245 24.86C99.7653 22.2178 101.046 19.3355 102.568 16.213C104.089 13.0905 105.65 10.5285 107.251 8.52685C108.853 6.52524 110.974 4.64373 113.616 2.88231C116.259 1.1209 119.141 0.200161 122.263 0.120096C125.386 0.0400321 129.189 0.480386 133.673 1.44116L133.432 2.16174C139.517 0.720579 143.601 0 145.682 0H328.469C340.319 0 349.446 4.4836 355.851 13.4508C362.256 22.418 363.697 32.8264 360.174 44.6759L294.362 262.291C288.597 281.346 282.872 293.636 277.188 299.16C271.503 304.685 261.215 307.447 246.323 307.447H37.5954C33.2719 307.447 30.2295 308.648 28.4681 311.05C26.7067 313.612 26.6266 317.055 28.2279 321.378C32.071 332.587 43.6002 338.192 62.8157 338.192H284.514C289.157 338.192 293.641 336.951 297.964 334.469C302.288 331.987 305.09 328.664 306.371 324.501L378.429 87.4302C379.55 83.9074 379.95 79.3437 379.63 73.7392C385.715 76.1411 390.439 79.5839 393.801 84.0675ZM138.236 84.5479C137.596 86.6296 137.756 88.431 138.717 89.9522C139.677 91.4735 141.279 92.2341 143.52 92.2341H289.558C291.639 92.2341 293.681 91.4735 295.683 89.9522C297.684 88.431 299.005 86.6296 299.646 84.5479L304.69 69.1756C305.33 67.0939 305.17 65.2924 304.21 63.7712C303.249 62.25 301.647 61.4894 299.406 61.4894H153.368C151.287 61.4894 149.245 62.25 147.243 63.7712C145.242 65.2924 143.921 67.0939 143.28 69.1756L138.236 84.5479ZM118.3 146.037C117.66 148.119 117.82 149.92 118.781 151.442C119.741 152.963 121.343 153.723 123.584 153.723H269.622C271.703 153.723 273.745 152.963 275.747 151.442C277.748 149.92 279.069 148.119 279.71 146.037L284.754 130.665C285.394 128.583 285.234 126.782 284.274 125.261C283.313 123.739 281.711 122.979 279.47 122.979H133.432C131.351 122.979 129.309 123.739 127.307 125.261C125.306 126.782 123.985 128.583 123.344 130.665L118.3 146.037Z" fill="#7300B5"/>
</svg>
