<svg width="450" height="450" viewBox="0 0 450 450" fill="none" xmlns="http://www.w3.org/2000/svg">
<path d="M319.812 232.258C324.125 232.258 328.296 233.52 331.89 235.915L382.579 269.711C388.569 273.694 395.529 275.806 402.713 275.806H450V261.29H402.72C398.41 261.29 394.228 260.029 390.635 257.633L370.161 243.982V0H94.3548V43.5484H0V450H275.806V406.452H370.161V345.389C370.618 345.279 371.09 345.244 371.547 345.134L405.31 336.696C412.802 334.821 420.511 333.871 428.226 333.871H450V319.355H428.226C419.327 319.355 410.428 320.45 401.791 322.608L368.028 331.046C350.673 335.381 332.202 334.675 315.247 329.023L303.017 324.944C291.882 321.233 280.286 319.355 268.548 319.355H205.214C205.214 307.351 214.985 297.581 226.988 297.581H306.827C318.834 297.581 328.601 287.81 328.601 275.806C328.601 264.671 320.166 255.57 309.375 254.287L315.332 232.258H319.812ZM310.644 342.791C321.779 346.509 333.378 348.387 345.112 348.387C348.635 348.387 352.147 348.082 355.645 347.742V391.935H275.806V368.194C278.355 365.256 280.329 361.78 281.388 357.846L287.331 335.831C291.07 336.593 294.777 337.5 298.417 338.719L310.644 342.791ZM272.787 334.038L267.379 354.054C265.972 359.267 261.219 362.903 255.826 362.903H253.472C246.877 362.903 241.511 357.541 241.511 350.942C241.511 349.883 241.65 348.837 241.926 347.82L245.693 333.871H268.548C269.962 333.871 271.373 333.981 272.787 334.038V334.038ZM230.653 333.871L227.91 344.024C227.3 346.275 226.995 348.596 226.995 350.942C226.995 360.756 232.425 369.24 240.374 373.812L238.095 382.913L252.175 386.435L254.433 377.419H255.826C257.697 377.419 259.511 377.157 261.29 376.781V435.484H14.5161V58.0645H108.871V14.5161H355.645V234.306L339.945 223.838C333.96 219.854 326.999 217.742 319.812 217.742H319.252L349.461 105.976C350.07 103.725 350.375 101.404 350.375 99.0577C350.375 84.4565 338.496 72.5806 323.898 72.5806H321.545C309.609 72.5806 299.097 80.629 295.982 92.154L275.806 166.811V43.5484H123.387V58.0645H261.29V217.742H246.275C238.375 217.742 230.936 220.361 224.716 225H152.419V239.516H209.467L194.951 254.032H152.419V268.548H180.442L168.314 280.676C164.033 284.95 161.673 290.642 161.673 296.702C161.673 309.194 171.833 319.355 184.333 319.355C186.569 319.355 188.724 318.926 190.815 318.302C190.808 318.657 190.705 318.993 190.705 319.355C190.705 327.361 197.215 333.871 205.221 333.871H230.653ZM286.562 283.065H259.426L290.075 169.664L314.971 177.961L286.562 283.065ZM230.879 238.63C234.937 234.579 240.547 232.258 246.275 232.258H258.118L252.196 254.163C243.014 254.497 234.406 258.126 227.874 264.657L190.081 302.45C188.564 303.967 186.466 304.839 184.326 304.839C179.832 304.839 176.182 301.188 176.182 296.702C176.182 294.526 177.032 292.484 178.57 290.946L230.879 238.63ZM238.138 274.92C240.881 272.177 244.371 270.306 248.096 269.332L244.386 283.065H230.001L238.138 274.92ZM335.445 102.187L326.556 135.072L301.66 126.775L309.992 95.9461C311.406 90.7329 316.155 87.0968 321.545 87.0968H323.898C330.497 87.0968 335.859 92.4588 335.859 99.0577C335.859 100.117 335.721 101.163 335.445 102.187V102.187ZM297.871 140.813L322.768 149.109L318.759 163.923L293.863 155.627L297.871 140.813ZM306.827 268.548C310.828 268.548 314.085 271.809 314.085 275.806C314.085 279.804 310.828 283.065 306.827 283.065H301.596L305.523 268.548H306.827Z" fill="#7300B5"/>
<path d="M217.742 72.5806H29.0322V145.161H217.742V72.5806ZM203.226 130.645H43.5484V87.0967H203.226V130.645Z" fill="#7300B5"/>
<path d="M58.0645 101.613H72.5806V116.129H58.0645V101.613Z" fill="#7300B5"/>
<path d="M87.0967 101.613H101.613V116.129H87.0967V101.613Z" fill="#7300B5"/>
<path d="M116.129 101.613H130.645V116.129H116.129V101.613Z" fill="#7300B5"/>
<path d="M145.161 101.613H159.677V116.129H145.161V101.613Z" fill="#7300B5"/>
<path d="M174.193 101.613H188.709V116.129H174.193V101.613Z" fill="#7300B5"/>
<path d="M116.129 232.258H101.613V261.29H43.5484V203.226H87.0967V188.71H29.0322V275.807H116.129V232.258Z" fill="#7300B5"/>
<path d="M140.029 161.804L72.5804 229.253L63.196 219.868L52.9326 230.132L72.5804 249.779L150.293 172.067L140.029 161.804Z" fill="#7300B5"/>
<path d="M101.613 384.677H43.5484V326.613H87.0967V312.097H29.0322V399.193H116.129V355.645H101.613V384.677Z" fill="#7300B5"/>
<path d="M63.196 343.255L52.9326 353.519L72.5804 373.167L150.293 295.454L140.029 285.191L72.5804 352.64L63.196 343.255Z" fill="#7300B5"/>
<path d="M232.258 399.194H246.774V413.71H232.258V399.194Z" fill="#7300B5"/>
<path d="M137.903 399.194H217.742V413.71H137.903V399.194Z" fill="#7300B5"/>
<path d="M152.419 195.968H246.774V210.484H152.419V195.968Z" fill="#7300B5"/>
</svg>
