<svg width="420" height="420" viewBox="0 0 420 420" fill="none" xmlns="http://www.w3.org/2000/svg">
<path d="M33.8703 372.438H210V358.886H33.8703C22.647 358.886 13.5478 349.787 13.5478 338.564V40.4992C13.5478 29.2725 22.647 20.1767 33.8703 20.1767H331.935C343.163 20.1767 352.258 29.2725 352.258 40.4992V196.305H365.809V40.4992C365.787 21.8016 350.634 6.65098 331.935 6.62891H33.8703C15.1761 6.65098 0.023771 21.8016 0 40.4992V338.564C0.023771 357.261 15.1761 372.412 33.8703 372.438Z" fill="#794FB5"/>
<path d="M27.0977 33.7266H40.6437V47.2726H27.0977V33.7266Z" fill="#794FB5"/>
<path d="M54.1914 33.7266H67.7426V47.2726H54.1914V33.7266Z" fill="#794FB5"/>
<path d="M81.2891 33.7266H94.8385V47.2726H81.2891V33.7266Z" fill="#794FB5"/>
<path d="M27.0977 60.8203H338.708V74.3715H27.0977V60.8203Z" fill="#794FB5"/>
<path d="M96.8244 89.9062L79.6175 107.113C65.0731 97.4841 45.5961 100.439 34.5579 113.947C23.5213 127.454 24.5112 147.13 36.845 159.462C49.1771 171.799 68.8544 172.789 82.3631 161.751C95.8701 150.714 98.8262 131.234 89.1956 116.693L106.401 99.486L96.8244 89.9062ZM60.9658 155.662C49.7442 155.662 40.645 146.564 40.645 135.341C40.645 124.116 49.7442 115.02 60.9658 115.02C63.9881 115.031 66.9612 115.723 69.6728 117.049L56.1793 130.544L65.7556 140.124L79.2593 126.638C80.5854 129.347 81.2798 132.321 81.29 135.341C81.29 146.564 72.1942 155.662 60.9658 155.662Z" fill="#794FB5"/>
<path d="M115.164 115.02H230.323V128.566H115.164V115.02Z" fill="#794FB5"/>
<path d="M115.164 142.113H162.582V155.659H115.164V142.113Z" fill="#794FB5"/>
<path d="M176.129 142.113H270.965V155.659H176.129V142.113Z" fill="#794FB5"/>
<path d="M243.871 115.02H311.613V128.566H243.871V115.02Z" fill="#794FB5"/>
<path d="M96.8244 171.195L79.6175 188.402C65.0731 178.773 45.5961 181.728 34.5579 195.236C23.5213 208.745 24.5112 228.419 36.845 240.754C49.1771 253.088 68.8544 254.078 82.3631 243.04C95.8701 232.002 98.8262 212.528 89.1956 197.982L106.401 180.775L96.8244 171.195ZM60.9658 236.953C49.7442 236.953 40.645 227.854 40.645 216.63C40.645 205.405 49.7442 196.306 60.9658 196.306C63.9881 196.318 66.9612 197.012 69.6728 198.338L56.1793 211.837L65.7556 221.413L79.2593 207.925C80.5854 210.637 81.2798 213.61 81.29 216.63C81.29 227.854 72.1942 236.953 60.9658 236.953Z" fill="#794FB5"/>
<path d="M115.164 196.305H230.323V209.854H115.164V196.305Z" fill="#794FB5"/>
<path d="M115.164 223.402H162.582V236.95H115.164V223.402Z" fill="#794FB5"/>
<path d="M176.129 223.402H230.32V236.95H176.129V223.402Z" fill="#794FB5"/>
<path d="M243.871 196.305H270.967V209.854H243.871V196.305Z" fill="#794FB5"/>
<path d="M96.8244 252.484L79.6175 269.691C65.0731 260.062 45.5961 263.017 34.5579 276.525C23.5213 290.034 24.5112 309.708 36.845 322.043C49.1771 334.379 68.8544 335.365 82.3631 324.329C95.8701 313.291 98.8262 293.815 89.1956 279.269L106.401 262.064L96.8244 252.484ZM60.9658 318.242C49.7442 318.242 40.645 309.143 40.645 297.919C40.645 286.694 49.7442 277.597 60.9658 277.597C63.9881 277.607 66.9612 278.3 69.6728 279.627L56.1793 293.126L65.7556 302.702L79.2593 289.214C80.5854 291.926 81.2798 294.9 81.29 297.919C81.29 309.143 72.1942 318.242 60.9658 318.242Z" fill="#794FB5"/>
<path d="M115.164 277.594H203.227V291.145H115.164V277.594Z" fill="#794FB5"/>
<path d="M115.164 304.695H162.582V318.243H115.164V304.695Z" fill="#794FB5"/>
<path d="M176.129 304.695H203.224V318.243H176.129V304.695Z" fill="#794FB5"/>
<path d="M318.388 413.084C374.509 413.084 419.999 367.586 419.999 311.47C419.999 255.348 374.509 209.855 318.388 209.855C262.266 209.855 216.773 255.348 216.773 311.47C216.84 367.561 262.293 413.016 318.388 413.084ZM318.388 223.405C367.021 223.405 406.453 262.833 406.453 311.47C406.453 360.107 367.021 399.533 318.388 399.533C269.749 399.533 230.32 360.107 230.32 311.47C230.377 262.856 269.771 223.459 318.388 223.405Z" fill="#794FB5"/>
<path d="M277.064 315.211L264.938 321.266L278.487 348.363C279.458 350.313 281.312 351.676 283.464 352.024C283.813 352.079 284.163 352.107 284.515 352.112C286.309 352.112 288.033 351.398 289.306 350.128L370.593 268.838L361.017 259.258L286.369 333.902L277.064 315.211Z" fill="#794FB5"/>
</svg>
